<?xml version="1.0" encoding="UTF-8"?>
<svg width="73px" height="110px" viewBox="0 0 73 110" version="1.1" xmlns="http://www.w3.org/2000/svg" xmlns:xlink="http://www.w3.org/1999/xlink">
    <!-- Generator: Sketch 40.3 (33839) - http://www.bohemiancoding.com/sketch -->
    <title>Group 2</title>
    <desc>Created with Sketch.</desc>
    <defs>
        <polygon id="path-1" points="0.693402819 1 1.69340282 1 1.69340282 0.773 0.693402819 0.773 0.693402819 1"></polygon>
        <polygon id="path-3" points="0.3369 1 1.3369 1 1.3369 0.6894 0.3369 0.6894"></polygon>
        <polygon id="path-5" points="0.5718 1 1.5718 1 1.5718 0.1429 0.5718 0.1429 0.5718 1"></polygon>
        <polygon id="path-7" points="1.35525272e-20 0.4859 1.35525272e-20 80.6899 72.2172456 80.6899 72.2172456 0.4859 0 0.4859"></polygon>
        <polygon id="path-9" points="0.0397 1 1.5487 1 1.5487 0.737 0.0397 0.737 0.0397 1"></polygon>
    </defs>
    <g id="Page-1" stroke="none" stroke-width="1" fill="none" fill-rule="evenodd">
        <g id="Besinne-homepage" transform="translate(-614.000000, -43.000000)">
            <g id="Group-2" transform="translate(614.000000, 42.000000)">
                <text id="besinne" font-family="DINPro-Bold, DINPro" font-size="18" font-weight="bold" fill="#FEBC00">
                    <tspan x="4" y="110">besinne</tspan>
                </text>
                <g id="Page-1">
                    <path d="M59.707,74.8335 C60.313,74.4905 60.937,74.3505 60.77,74.5795 C61.836,73.5885 61.995,73.7745 61.822,73.2415 C62.098,72.8745 62.458,72.6075 62.666,72.5105 C62.885,72.4255 62.978,72.5395 62.678,72.9765 C62.678,72.9765 63.104,72.4715 63.499,71.9635 C63.855,71.4275 64.211,70.8905 64.211,70.8905 L63.68,71.4335 C63.548,71.5685 63.417,71.7045 63.318,71.8065 C63.223,71.9105 63.143,71.9645 63.143,71.9645 C63.14,71.6725 63.527,71.2315 63.954,70.8005 C64.329,70.3295 64.692,69.8235 64.607,69.4965 C64.607,69.4965 64.233,70.0465 63.859,70.5975 C63.433,71.1045 63.006,71.6135 63.006,71.6135 L62.982,71.4085 C62.69,71.9575 61.759,72.6975 61.378,72.8705 C61.385,72.7715 61.279,72.6985 61.635,72.4085 C61.319,72.6435 61.083,72.8425 60.901,73.0075 C60.703,73.1545 60.566,73.2765 60.471,73.3825 C60.281,73.5925 60.258,73.7325 60.251,73.8685 C60.239,74.1445 60.301,74.4035 59.058,75.1145 C59.223,75.0415 59.414,74.9325 59.707,74.8335" id="Fill-1" fill="#FFC50A"></path>
                    <path d="M56.6396,74.9116 C56.6396,74.9116 56.4096,75.1376 56.1616,75.3506 C55.9126,75.5696 55.6636,75.7896 55.6636,75.7896 C55.6636,75.7886 55.1626,75.8766 54.6596,75.9496 C54.1606,76.0366 53.6446,76.0696 53.6446,76.0686 C53.6656,76.2806 52.1856,76.6506 53.2276,76.6786 C53.4216,76.6136 53.8026,76.4876 54.1206,76.4516 C53.9796,76.9396 51.3886,77.0646 52.0506,77.4066 C53.7116,77.0866 53.9876,77.1206 54.9156,76.5706 C56.4086,76.2976 57.4546,76.0016 58.1766,75.9096 C58.5616,75.6716 58.5176,75.4056 59.0046,75.1396 C58.8936,75.1926 58.7916,75.2416 58.6646,75.3036 L58.3566,74.7386 C58.0056,75.0526 57.5766,75.1406 57.1046,75.3136 C57.1046,75.3136 57.2256,75.2216 57.4086,75.0836 C57.5906,74.9486 57.8276,74.7646 58.0456,74.5586 C58.2646,74.3636 58.4826,74.1676 58.6466,74.0206 C58.8046,73.8716 58.8996,73.7616 58.8996,73.7616 C58.4596,73.6596 57.7956,73.8816 57.1056,74.1196 C56.4196,74.3636 55.6796,74.5836 55.2296,74.5846 C56.4216,74.7996 54.4446,75.0936 56.6396,74.9116" id="Fill-3" fill="#FFC50A"></path>
                    <path d="M59.0044,75.1392 C59.0184,75.1332 59.0414,75.1222 59.0574,75.1152 C59.0414,75.1222 59.0184,75.1332 59.0044,75.1392" id="Fill-5" fill="#FFC50A"></path>
                    <path d="M64.7227,53.5083 C64.4237,54.0253 64.4587,54.2613 64.4747,54.3773 C64.4747,54.3773 65.3697,52.9363 66.1997,51.4623 C66.5537,50.6953 66.9087,49.9273 67.1737,49.3513 C67.4547,48.7813 67.5747,48.3763 67.5747,48.3763 C67.4017,48.5423 66.3547,50.1873 66.8157,48.9873 C66.4067,49.4323 65.8247,51.0653 65.9147,51.4043 L65.8907,50.8493 C65.7437,51.6333 65.2737,52.1223 65.0007,52.3393 C64.7067,52.5473 64.5227,52.4463 64.6907,51.9783 L64.6287,52.0893 C64.6287,52.0893 64.3777,53.1463 64.0637,54.2253 C63.6617,55.2703 63.2607,56.3163 63.2607,56.3163 C63.7777,55.7023 63.8787,55.3903 63.9927,55.0443 C64.0997,54.6953 64.2597,54.3373 64.7227,53.5083" id="Fill-7" fill="#FFC50A"></path>
                    <path d="M33.4287,47.6392 C34.2417,48.1202 34.3987,48.0692 34.3267,47.9792 C34.0117,47.8622 33.7057,47.7532 33.4287,47.6392" id="Fill-9" fill="#FFC50A"></path>
                    <path d="M62.8569,57.314 L62.1779,58.605 C62.4939,58.119 62.7309,57.662 62.8569,57.314" id="Fill-11" fill="#FFC50A"></path>
                    <path d="M62.251,46.9136 C62.232,46.9036 62.22,46.8856 62.182,46.9006 L62.158,47.4296 C62.161,47.4226 62.162,47.4206 62.163,47.4176 C62.195,47.2336 62.224,47.0676 62.251,46.9136" id="Fill-13" fill="#FFC50A"></path>
                    <path d="M33.0825,63.8267 C32.9385,63.7657 32.8095,63.7227 32.6425,63.6417 C32.7935,63.7267 32.9455,63.7737 33.0825,63.8267" id="Fill-15" fill="#FFC50A"></path>
                    <path d="M61.6172,32.3516 C61.6172,32.3516 61.7872,32.9166 61.9572,33.4816 C62.0392,33.7666 62.1412,34.0516 62.1882,34.2686 C62.2322,34.4856 62.2612,34.6306 62.2612,34.6306 C62.0692,34.3326 62.1682,35.4546 61.9392,34.9756 C61.9742,35.1496 62.0832,35.9776 62.1652,35.7486 L62.1322,35.2726 C62.4212,35.8776 62.6102,35.9996 62.7872,36.2246 C62.9782,36.4516 63.1192,36.7786 63.2632,37.8436 C63.6672,36.5376 63.3102,35.9396 63.0462,35.2626 C62.9992,35.0296 62.9752,34.8336 62.9472,34.6366 C62.9472,34.6366 62.7682,34.1466 62.4972,33.6776 C62.2502,33.2116 62.0032,32.7466 62.0032,32.7466 L61.6172,32.3516 Z" id="Fill-17" fill="#FFC50A"></path>
                    <path d="M41.0688,23.6196 L41.0288,23.6456 C41.0558,23.6426 41.0658,23.6326 41.0688,23.6196" id="Fill-19" fill="#FFC50A"></path>
                    <path d="M40.8682,23.7568 L41.0292,23.6458 C40.8782,23.6708 40.4212,23.5458 40.8682,23.7568" id="Fill-21" fill="#FFC50A"></path>
                    <path d="M62.9116,56.6978 C62.9586,56.7918 62.9506,57.0108 62.8566,57.3138 C62.8566,57.3138 62.9626,57.0638 63.0636,56.8138 L63.2606,56.3158 C63.1636,56.4228 63.0346,56.5638 62.9116,56.6978" id="Fill-23" fill="#FFC50A"></path>
                    <path d="M63.3838,54.1987 C63.4518,54.2427 64.6288,52.0897 64.6288,52.0897 L64.8528,51.1857 C64.4468,52.0187 64.0098,53.0267 63.3838,54.1987" id="Fill-25" fill="#FFC50A"></path>
                    <path d="M36.9712,65.7544 C34.2692,64.8074 34.6672,64.7764 35.4182,64.8664 C36.1722,64.9514 37.2662,65.1274 36.0902,64.6154 C34.6032,64.1724 34.0202,64.1334 33.0822,63.8264 C35.1612,64.6524 34.9362,64.7984 34.7022,64.9774 C34.4712,65.1454 34.2152,65.3684 36.4332,66.0924 C36.0402,66.2264 35.1862,66.0814 34.2652,65.7784 C33.3712,65.4224 32.3722,64.9864 31.7202,64.5234 C31.0552,63.8614 31.4482,63.9734 32.0672,64.2104 C32.6842,64.4534 33.5852,64.7314 33.8632,64.5944 C32.1592,63.9064 32.4232,64.1034 31.5972,63.9814 C29.1202,62.5204 26.1372,61.1714 25.3532,59.4004 C24.5232,58.7434 24.1412,58.4194 23.7932,58.2184 C23.4502,58.0124 23.1692,57.9004 22.6442,57.5324 C22.3532,57.6204 22.8502,58.2644 23.4612,58.9944 C24.0522,59.7464 24.8602,60.4534 25.0082,60.9034 C24.9132,60.7554 24.7322,60.4654 24.8542,60.4734 L25.5182,61.1504 C25.8542,61.4864 26.2172,61.7904 26.2172,61.7904 C24.9312,60.5364 26.7592,61.5264 27.5242,62.0604 C28.0592,62.4904 29.2342,63.1824 28.9872,63.2174 L28.0532,62.7364 C28.5622,63.1824 29.2402,63.5114 29.9102,63.8484 C30.6062,64.1464 31.2962,64.4514 31.8472,64.9244 C31.8562,65.0694 31.3582,64.8594 31.2502,64.8874 C32.8252,65.3174 34.2092,65.9804 36.5112,66.5094 L35.0442,66.5484 C35.5472,66.5674 36.1562,66.7054 36.8552,66.8594 C37.5632,66.9924 38.3402,67.1974 39.1542,67.4044 C39.9792,67.5864 40.8382,67.7754 41.6782,67.9594 C42.5312,68.1114 43.3622,68.2604 44.1162,68.3954 C43.7782,68.3044 43.1872,68.1564 43.5542,68.0964 C45.3262,68.0624 46.6962,68.3964 45.8652,68.6894 C46.3062,68.5994 46.9512,68.5104 47.7102,68.4554 C48.0902,68.4334 48.4972,68.4084 48.9222,68.3834 C49.3472,68.3284 49.7892,68.2724 50.2362,68.2144 C50.6822,68.1514 51.1372,68.0934 51.5802,68.0104 C52.0192,67.9014 52.4522,67.7864 52.8632,67.6614 C53.2732,67.5374 53.6622,67.4044 54.0152,67.2634 C54.3602,67.0954 54.6692,66.9164 54.9292,66.7334 C54.9292,66.7334 55.5362,66.3184 56.3802,65.6604 C57.1862,64.9294 58.2732,64.0394 59.1482,62.9604 C60.0912,61.9614 60.8152,60.8184 61.3692,60.0144 C61.6562,59.6194 61.8252,59.2394 61.9672,58.9964 C62.1012,58.7474 62.1782,58.6054 62.1782,58.6054 C61.9712,58.9204 61.7362,59.2504 61.4632,59.5614 C60.4392,59.8064 60.1552,60.1534 60.9992,58.7974 C60.5352,59.4034 60.4422,59.6614 60.2772,59.9824 C60.0902,60.2784 59.8752,60.7014 58.9092,61.3764 C59.5302,60.6514 59.3592,60.1144 57.5412,61.2904 C55.3862,62.9444 53.4152,64.2854 51.2572,65.3134 C49.1052,66.3134 46.7822,67.1084 43.9792,67.3124 C43.8882,67.1164 42.7662,66.9594 41.4262,66.7504 C40.7642,66.6124 40.0452,66.4634 39.3652,66.3214 C38.6982,66.1434 38.0762,65.9494 37.5872,65.7914 C38.0212,65.7094 38.6062,65.7424 39.2712,65.8354 C39.9452,65.8994 40.7112,65.9854 41.4832,66.0944 C41.0042,65.9944 40.3522,65.8584 39.6672,65.7154 C38.9872,65.5564 38.2942,65.3294 37.6972,65.1584 L36.9712,65.7544 Z" id="Fill-27" fill="#FFC50A"></path>
                    <path d="M50.2339,65.4253 C50.0879,65.4193 49.9389,65.4273 49.7879,65.4373 C49.8719,65.4523 50.0059,65.4523 50.2339,65.4253" id="Fill-29" fill="#FFC50A"></path>
                    <path d="M41.9531,66.1743 C41.9741,66.1633 41.9691,66.1523 41.9781,66.1383 C41.8131,66.1303 41.6481,66.1213 41.4831,66.0943 C41.6461,66.1333 41.8341,66.1593 41.9531,66.1743" id="Fill-31" fill="#FFC50A"></path>
                    <path d="M61.4673,57.0835 C61.6013,56.7865 61.7443,56.6055 61.8663,56.3075 C61.7733,56.4755 61.6233,56.6605 61.4913,56.8505 C61.3773,57.0425 61.3413,57.1515 61.4673,57.0835" id="Fill-33" fill="#FFC50A"></path>
                    <path d="M62.6597,56.7251 L62.6717,56.9561 C62.7647,56.8561 62.8287,56.7871 62.9117,56.6981 C62.8717,56.6171 62.7947,56.6051 62.6597,56.7251" id="Fill-35" fill="#FFC50A"></path>
                    <path d="M23.1465,50.729 L22.8415,50.338 C22.9885,50.595 23.0785,50.691 23.1465,50.729" id="Fill-37" fill="#FFC50A"></path>
                    <path d="M31.498,62.6148 C32.353,63.0728 32.469,62.9778 32.668,62.9368 C32.865,62.9008 33.143,62.9178 34.372,63.4698 L33.668,63.1078 C35.469,63.8058 38.648,64.9978 40.947,65.3478 C40.645,65.5238 42.287,65.8648 41.978,66.1378 C42.791,66.1768 43.594,66.2528 44.305,66.2038 C45.019,66.1448 45.628,66.0458 46.037,65.8748 C47.04,65.9438 48.525,65.5648 49.788,65.4368 C49.233,65.3238 51.412,64.4518 48.467,65.2148 C48.706,65.1578 48.548,65.1288 48.782,65.0608 C47.802,65.0478 47.138,65.1168 46.497,65.2618 C45.859,65.3758 45.245,65.4678 44.405,65.4638 C43.423,65.2448 46.041,65.1628 45.105,65.0668 C44.589,65.1128 43.925,65.1118 43.233,65.0168 C42.539,64.9418 41.804,64.8678 41.154,64.7238 C39.837,64.5148 38.805,64.2908 38.769,64.6718 C37.293,64.3298 37.159,64.0708 36.789,63.7878 C36.17,63.7698 35.329,63.5768 34.478,63.1788 C34.05,62.9898 33.598,62.7918 33.165,62.5568 C32.742,62.3048 32.316,62.0528 31.908,61.8098 C30.294,60.8038 29.04,59.8228 28.742,60.2298 C29.093,60.4948 29.574,60.8128 30.115,61.1338 C30.653,61.4558 31.238,61.8008 31.861,61.9998 L31.498,62.6148 Z" id="Fill-39" fill="#FFC50A"></path>
                    <path d="M59.3115,59.2192 C59.2235,59.2882 59.1125,59.3872 59.0365,59.4402 C59.1175,59.3742 59.2185,59.2932 59.3115,59.2192" id="Fill-41" fill="#FFC50A"></path>
                    <path d="M71.8247,42.1099 C71.8247,42.1099 71.5637,43.5669 71.5267,43.5619 C71.7287,43.2409 71.7747,42.6869 71.8247,42.1099 M71.9957,39.7059 C71.9957,39.7059 72.1627,39.9219 72.2977,40.1409 C72.4397,40.3619 72.5817,40.5829 72.5817,40.5829 C72.4567,41.7539 72.3687,42.7429 72.2027,43.6169 C72.0097,44.4879 71.8207,45.2549 71.6297,46.0009 C71.4677,46.7519 71.1647,47.4529 70.8997,48.2299 C70.6097,49.0009 70.3667,49.8539 69.9007,50.7979 C69.6817,51.0509 69.8397,50.5669 69.9187,50.3219 C69.6327,50.9969 69.2917,51.7479 68.9297,52.5239 C68.5847,53.3089 68.0627,54.0479 67.6387,54.8049 C67.4177,55.1789 67.1997,55.5479 66.9887,55.9059 C66.7667,56.2569 66.5177,56.5759 66.3037,56.8919 C65.8667,57.5199 65.4897,58.0899 65.2177,58.5679 C64.6427,59.3269 62.6647,60.9779 63.2087,60.1519 C62.9347,60.5349 62.5997,60.9609 62.1577,61.2889 C62.0227,61.2449 62.2417,61.0339 62.4787,60.8129 C62.7137,60.5889 62.9317,60.3269 62.8767,60.2489 C62.5737,60.5419 62.4267,60.6249 62.3997,60.7409 C62.7607,60.0989 61.3537,60.6639 63.5847,58.3489 C64.8737,57.8149 62.0897,60.0229 63.0467,59.9219 C63.8067,59.1319 63.5377,59.0589 63.5467,58.9399 C64.0327,58.4489 64.2807,58.2229 64.4087,58.1369 C64.5477,58.0559 64.5887,58.1259 64.6217,58.2009 C64.7897,57.6689 66.0477,56.4719 66.2367,55.7269 C67.5857,53.4699 66.5627,56.1169 67.4597,54.6349 L67.4237,53.4599 C67.4237,53.4599 67.5207,53.3109 67.6667,53.0889 C67.8137,52.8659 68.0137,52.5709 68.1647,52.2529 C68.4917,51.6239 68.8167,50.9949 68.8167,50.9949 C69.5887,49.0899 69.2017,49.1109 68.9247,49.0759 C68.6267,49.0389 68.3497,48.9139 68.8997,46.7489 C68.9627,47.0759 69.2717,46.8619 69.6667,46.3059 C70.0307,45.7439 70.4107,44.8199 70.7217,43.7949 C70.5897,44.4179 70.4887,45.3279 70.3427,46.2849 C70.1277,47.2239 69.8427,48.2069 69.4827,48.9629 C70.1007,47.9349 69.8527,48.7049 69.5577,49.6199 C69.1827,50.5049 68.7447,51.5269 69.2647,51.0819 C69.5827,49.9089 70.1407,48.0489 70.7717,46.6389 L70.6677,47.1319 C70.9917,46.3749 70.9527,45.6269 71.0277,44.8389 C71.0767,44.0429 71.2137,43.2009 71.4577,42.1249 C71.5867,41.0359 71.7357,41.2599 71.8577,41.4729 C71.8897,40.5319 71.8787,39.6979 71.9957,39.7059" id="Fill-43" fill="#FFC50A"></path>
                    <path d="M40.1079,75.438 C40.2259,75.474 40.3609,75.515 40.4679,75.547 C40.3919,75.506 40.2539,75.471 40.1079,75.438" id="Fill-45" fill="#FFC50A"></path>
                    <path d="M40.9102,8.1519 C40.9112,8.1349 40.2622,8.0489 40.2622,8.0489 C40.5132,8.1039 40.7222,8.1179 40.9102,8.1519" id="Fill-47" fill="#FFC50A"></path>
                    <path d="M27.8062,12.4663 L27.1292,13.0643 C27.4212,12.8723 27.6222,12.6763 27.8062,12.4663" id="Fill-49" fill="#FFC50A"></path>
                    <path d="M31.9116,73.3931 L31.8806,73.3771 C31.8216,73.3711 31.7756,73.3651 31.7146,73.3581 L31.9116,73.3931 Z" id="Fill-51" fill="#FFC50A"></path>
                    <path d="M8.5991,35.1963 C8.5011,35.3223 8.4021,35.4683 8.2941,35.6773 C8.3641,35.6693 8.4721,35.4873 8.5991,35.1963" id="Fill-53" fill="#FFC50A"></path>
                    <path d="M27.9312,12.3545 C27.9092,12.3625 27.8972,12.3665 27.8802,12.3735 L27.8062,12.4665 L27.9312,12.3545 Z" id="Fill-55" fill="#FFC50A"></path>
                    <path d="M46.4185,11.8315 C46.5515,11.8645 46.6735,11.8935 46.8175,11.9295 C46.6365,11.8675 46.5185,11.8445 46.4185,11.8315" id="Fill-57" fill="#FFC50A"></path>
                    <path d="M46.291,9.8223 C46.44,9.8683 46.584,9.9073 46.702,9.9273 L46.291,9.8223 Z" id="Fill-59" fill="#FFC50A"></path>
                    <path d="M61.2847,26.1939 C61.2847,26.1939 61.7057,26.9639 61.6837,26.9739 C61.5537,26.5639 61.3887,26.3539 61.2847,26.1939" id="Fill-61" fill="#FFC50A"></path>
                    <path d="M48.2808,11.2075 C48.3418,11.2055 48.4008,11.2045 48.4458,11.1955 C48.3248,11.1545 48.2558,11.1605 48.2808,11.2075" id="Fill-63" fill="#FFC50A"></path>
                    <path d="M46.063,77.9595 C46.041,77.9595 46.016,77.9585 46.003,77.9585 L45.974,78.0315 L46.063,77.9595 Z" id="Fill-65" fill="#FFC50A"></path>
                    <path d="M48.4639,77.1148 C48.7379,77.0938 49.0239,77.0728 49.3049,77.0518 C48.9919,77.0508 48.6899,77.0848 48.4639,77.1148" id="Fill-67" fill="#FFC50A"></path>
                    <path d="M6.5845,48.0806 C6.5145,48.3366 6.5175,48.9176 6.3625,48.6766 C6.6245,49.1006 6.8615,49.0176 6.5845,48.0806" id="Fill-69" fill="#FFC50A"></path>
                    <g id="Group-73" transform="translate(40.000000, 80.566900)">
                        <mask id="mask-2" fill="white">
                            <use xlink:href="#path-1"></use>
                        </mask>
                        <g id="Clip-72"></g>
                        <path d="M0.7241,0.916 C0.9021,0.861 1.1201,0.815 1.3371,0.773 C0.9351,0.832 0.5861,0.845 0.7241,0.916" id="Fill-71" fill="#FFC50A" mask="url(#mask-2)"></path>
                    </g>
                    <g id="Group-76" transform="translate(41.000000, 80.566900)">
                        <mask id="mask-4" fill="white">
                            <use xlink:href="#path-3"></use>
                        </mask>
                        <g id="Clip-75"></g>
                        <path d="M0.3369,0.7734 C0.5329,0.7454 0.7429,0.7144 0.9229,0.6894 C0.7179,0.7104 0.5209,0.7374 0.3369,0.7734" id="Fill-74" fill="#FFC50A" mask="url(#mask-4)"></path>
                    </g>
                    <path d="M1.0146,41.6118 C1.0616,41.5438 1.1026,41.4338 1.1216,41.2848 C1.0326,41.3218 1.0086,41.4418 1.0146,41.6118" id="Fill-77" fill="#FFC50A"></path>
                    <path d="M49.9858,77.1314 C50.1528,77.0044 53.6838,76.3604 50.6788,76.5374 C50.7668,76.0694 52.5698,76.1634 53.3218,75.9054 C52.7508,75.8934 53.5498,75.5594 53.3538,75.4224 C52.9938,75.5534 52.5528,75.7314 51.9188,75.7814 C51.6068,75.5974 52.5458,75.3524 53.2838,75.3104 C52.3588,75.2184 54.3438,74.7474 53.0658,74.7754 C50.3938,75.3264 48.4158,75.5064 46.2888,76.0664 C48.0088,76.0784 49.8068,75.8864 51.1508,75.9674 L50.6178,76.4174 C49.0688,76.1384 48.1538,76.4294 46.5898,76.2964 C46.5898,76.2964 46.8068,76.3194 47.1318,76.3564 C47.4608,76.3984 47.8908,76.4374 48.3158,76.4614 C49.1708,76.5204 50.0218,76.5344 50.0218,76.5344 C51.6338,76.7884 50.5828,76.9374 49.3048,77.0514 C49.6198,77.0534 49.9028,77.0644 49.9858,77.1314" id="Fill-79" fill="#FFC50A"></path>
                    <g id="Group-83" transform="translate(47.000000, 80.566900)">
                        <mask id="mask-6" fill="white">
                            <use xlink:href="#path-5"></use>
                        </mask>
                        <g id="Clip-82"></g>
                        <path d="M0.5718,0.1699 L0.6348,0.1829 C0.6918,0.1689 0.7608,0.1599 0.7968,0.1429 L0.5718,0.1699 Z" id="Fill-81" fill="#FFC50A" mask="url(#mask-6)"></path>
                    </g>
                    <path d="M68.9004,23.0112 L69.1784,23.2812 C69.0014,23.0332 68.9234,22.9672 68.9004,23.0112" id="Fill-84" fill="#FFC50A"></path>
                    <path d="M45.4468,78.6577 L45.4488,78.6587 C45.4248,78.6617 45.4188,78.6617 45.4468,78.6577" id="Fill-86" fill="#FFC50A"></path>
                    <path d="M64.7153,15.3027 C64.7323,15.3057 64.7503,15.3087 64.7743,15.3187 C64.7433,15.3017 64.7343,15.3077 64.7153,15.3027" id="Fill-88" fill="#FFC50A"></path>
                    <path d="M56.5645,19.1948 C56.5575,19.2168 56.5455,19.2318 56.5485,19.2648 C56.6515,19.3568 56.6245,19.2928 56.5645,19.1948" id="Fill-90" fill="#FFC50A"></path>
                    <path d="M64.6812,15.3198 C64.6912,15.3128 64.6972,15.3008 64.7152,15.3028 C64.7012,15.3048 64.6812,15.3008 64.6812,15.3198" id="Fill-92" fill="#FFC50A"></path>
                    <path d="M27.1299,4.3799 C27.1299,4.3799 27.2709,4.3789 27.4909,4.3749 C27.5549,4.3209 27.4529,4.2819 27.1299,4.3799" id="Fill-94" fill="#FFC50A"></path>
                    <path d="M35.1343,3.0713 C35.1863,3.0813 35.2183,3.0883 35.2843,3.1013 L35.1343,3.0713 Z" id="Fill-96" fill="#FFC50A"></path>
                    <path d="M8.1865,46.2993 C8.1335,45.9913 8.1305,45.7563 8.1025,45.5613 C8.1015,45.7893 8.1045,46.0373 8.1865,46.2993" id="Fill-98" fill="#FFC50A"></path>
                    <path d="M64.7739,15.3189 C64.8639,15.3629 64.9829,15.4349 65.1389,15.5799 C64.9689,15.4189 64.8499,15.3539 64.7739,15.3189" id="Fill-100" fill="#FFC50A"></path>
                    <path d="M18.4829,12.7588 C18.5299,12.6918 18.5749,12.6298 18.6199,12.5668 L18.5049,12.6468 L18.4829,12.7588 Z" id="Fill-102" fill="#FFC50A"></path>
                    <path d="M15.5635,15.4111 C15.6195,15.2811 15.6255,15.2031 15.6445,15.1191 C14.7835,16.2351 13.0545,18.1661 13.1955,18.6661 C13.4875,18.2861 15.2295,16.5361 15.1575,17.0291 C15.7185,16.2301 16.9175,15.3801 17.2125,14.9451 C15.9665,15.9611 16.8255,14.8271 17.4475,13.9271 C18.2015,13.2901 17.5725,14.2991 18.2055,13.7401 L19.8095,12.1581 L18.3415,13.4671 L18.4825,12.7591 C18.4395,12.8191 18.4095,12.8611 18.3635,12.9261 C16.1625,15.4631 17.7055,12.6941 15.5635,15.4111" id="Fill-104" fill="#FFC50A"></path>
                    <path d="M15.6445,15.1196 C15.7675,14.9456 15.8685,14.7876 15.9325,14.6506 C15.7235,14.8906 15.6715,15.0106 15.6445,15.1196" id="Fill-106" fill="#FFC50A"></path>
                    <path d="M6.9751,25.9697 C6.9071,26.1337 6.8361,26.3137 6.7551,26.5427 C6.7971,26.4347 6.8921,26.1857 6.9751,25.9697" id="Fill-108" fill="#FFC50A"></path>
                    <path d="M65.6582,49.6646 C65.8012,49.6706 66.8752,47.9246 66.5102,47.8226 C66.3122,48.3856 65.9872,48.8986 65.7142,49.4346 L65.6582,49.6646 Z" id="Fill-110" fill="#FFC50A"></path>
                    <path d="M10.0352,61.3345 C9.9102,61.1605 9.7822,60.9895 9.6452,60.8235 C9.6032,60.7985 9.5622,60.7735 9.5292,60.7535 C9.5692,60.8865 9.8792,61.1855 10.0352,61.3345" id="Fill-112" fill="#FFC50A"></path>
                    <path d="M14.8965,17.5928 C15.0815,17.2848 15.1425,17.1288 15.1575,17.0288 C15.0325,17.2248 14.9305,17.4168 14.8965,17.5928" id="Fill-114" fill="#FFC50A"></path>
                    <path d="M9.501,61.8911 C9.599,62.1661 9.743,62.5781 9.684,62.7011 C10.043,63.1521 10.398,63.3821 10.847,63.7621 C10.35,63.3251 9.945,62.6641 9.501,61.8911" id="Fill-116" fill="#FFC50A"></path>
                    <path d="M10.8833,63.7935 L10.8473,63.7625 L10.8833,63.7935 Z" id="Fill-118" fill="#FFC50A"></path>
                    <g id="Group-122" transform="translate(0.000000, 0.566900)">
                        <mask id="mask-8" fill="white">
                            <use xlink:href="#path-7"></use>
                        </mask>
                        <g id="Clip-121"></g>
                        <path d="M63.2368,30.7139 C63.2388,30.7319 63.2408,30.7539 63.2428,30.7749 L63.2298,30.7089 L63.2368,30.7139 Z M39.9578,4.9249 C40.6598,4.9649 41.3778,4.9879 42.0918,5.1339 C42.0228,5.1159 41.9598,5.0979 41.8878,5.0779 C41.8878,5.0779 42.4228,5.1219 42.9578,5.1649 C43.2278,5.1869 43.4978,5.2099 43.6998,5.2259 C43.9048,5.2369 44.0358,5.2679 44.0358,5.2679 C42.8018,4.8189 41.9958,4.2489 43.8928,4.4729 C43.7008,4.5849 44.1868,4.8829 43.5298,4.8269 C44.6948,5.3369 47.1698,6.4439 46.6978,5.6959 C44.2468,5.4219 46.3918,4.8489 44.4518,4.6229 C45.5258,4.6199 46.4908,5.0099 47.4338,5.2759 C46.3878,5.1599 47.4098,6.0049 48.7178,6.7159 C49.3448,6.9109 50.8768,7.7879 51.8768,8.2199 C51.7048,7.7429 52.6578,8.0169 51.1198,7.0859 C51.7618,7.2869 52.6548,7.8009 53.5328,8.5479 C53.1178,8.3559 52.4258,7.9719 52.4088,8.1059 C52.8648,8.7639 53.5988,9.1889 53.9098,9.5659 C54.2218,9.7719 54.5358,9.9799 54.8418,10.1819 C54.7708,10.0939 54.7168,10.0059 54.6908,9.9269 L55.8768,10.4259 C54.4338,9.5679 55.3438,9.8429 55.4798,9.6969 C55.2028,9.9969 56.3348,10.3599 56.7818,10.7279 C56.7818,10.7279 56.6148,10.4369 56.4198,10.1749 C56.2288,9.9049 56.0378,9.6359 56.0378,9.6359 C56.6828,9.8079 57.5378,11.2089 57.5528,10.6839 C55.5628,8.8709 54.6448,8.3319 52.5068,7.1589 L53.1728,7.9599 C52.5648,7.6459 52.1908,7.4049 51.9288,7.1929 C51.6548,6.9989 51.4948,6.8309 51.3288,6.6499 C50.9888,6.3019 50.6488,5.8449 49.2278,5.1949 C48.5618,5.0919 47.5068,4.5869 46.5238,4.3079 C45.5388,4.0329 44.6948,3.8449 44.5838,4.1209 C45.0318,4.0119 42.8348,3.1389 41.7298,3.1849 C41.0998,3.3539 39.9108,3.3879 39.0208,3.3949 C38.1258,3.4569 37.5188,3.5619 38.0408,3.6819 C38.2758,3.6859 38.5298,3.6719 38.7938,3.6539 C39.0558,3.6639 39.3258,3.6749 39.5888,3.6849 C40.1158,3.7179 40.6188,3.7909 40.9658,4.0099 L39.1578,3.9099 L40.2958,4.3429 C39.7048,4.1659 39.7368,4.4609 39.9578,4.9249 L39.9578,4.9249 Z M32.8828,5.6229 C32.2678,5.3529 31.5768,5.0209 30.4118,5.1029 C29.8328,5.1569 29.1268,5.2869 28.2428,5.5239 C27.3908,5.8349 26.3618,6.2789 25.1698,6.9489 C25.1698,6.9489 25.5098,6.6729 25.5168,6.6849 C24.8508,6.9059 24.2618,7.2689 23.6878,7.6529 C23.4028,7.8479 23.1238,8.0539 22.8478,8.2679 C22.5768,8.4889 22.3348,8.7529 22.0758,8.9989 C21.5648,9.4999 21.0438,10.0069 20.4618,10.4879 C19.9118,11.0059 19.3328,11.5339 18.6198,11.9999 C19.1008,11.3279 19.3338,11.0089 19.5488,10.6369 C19.6578,10.4509 19.7588,10.2489 19.8938,9.9859 C20.0428,9.7349 20.2268,9.4249 20.4768,9.0039 C20.4768,9.0039 20.1598,9.3249 19.8428,9.6459 C19.6788,9.7989 19.5458,9.9849 19.4368,10.1139 C19.3298,10.2449 19.2588,10.3329 19.2588,10.3329 C19.3168,9.6509 18.1728,11.0549 17.2078,11.9419 L17.6728,10.7539 C18.0178,10.5339 18.5738,10.0819 19.0288,9.6779 C19.4658,9.2569 19.8948,8.9769 19.8188,8.9349 C19.6578,9.0979 20.3108,8.8069 21.1508,8.3389 C21.5768,8.1129 22.0228,7.8069 22.4928,7.5529 C22.9658,7.3029 23.4128,7.0379 23.7588,6.7779 C23.5898,6.6689 22.7398,7.1219 22.0718,7.4499 C21.4458,7.8269 20.9708,8.0509 21.4488,7.3029 C20.4528,8.4019 20.0668,8.2019 18.9698,9.2689 C19.9368,8.1479 18.9228,8.6569 19.6228,7.7629 L18.6548,8.5969 L17.7768,9.5089 C17.7198,9.4949 18.3158,8.7879 18.7748,8.2789 C19.2388,7.7789 19.4888,7.3939 18.5048,7.8749 C17.8328,8.6779 15.7078,10.4229 15.9448,10.7259 L15.8128,10.6849 C14.4798,11.9759 15.6668,11.6619 13.9828,13.1669 C14.1138,13.3189 14.5028,13.0949 15.0118,12.4759 C15.4228,11.9219 15.2308,11.6409 16.2228,10.5889 C16.5698,10.4739 16.2448,10.7699 15.9718,11.0519 C15.7198,11.3419 15.5328,11.6209 16.0458,11.4439 C16.5608,11.2759 18.6458,8.6619 18.2728,9.8149 L16.8618,11.0349 C16.9858,11.1919 16.7968,11.4959 16.6178,11.7859 C16.4578,12.0859 16.2988,12.3709 16.4268,12.4669 C15.7968,13.3749 14.7678,13.8439 14.2718,14.9009 C14.1688,15.4259 15.0188,15.0899 13.7058,16.3899 C13.0388,16.7709 12.0138,17.7829 11.1248,18.9289 C10.2648,20.1009 9.4338,21.3159 9.0398,22.0159 L8.5228,23.3489 C8.7788,23.3659 9.9048,21.0639 9.6868,21.9909 L8.6358,23.8919 L8.5918,23.6699 C8.1978,24.2739 7.9248,24.9669 7.7058,25.5939 C7.7618,24.8529 8.7098,23.5879 8.1838,23.6359 C7.5948,24.4819 7.3318,24.5119 6.9748,25.4029 C7.0438,25.2039 7.0908,25.0249 7.0278,25.0209 C5.9098,26.8079 6.5158,27.0329 6.4008,27.5529 C5.9408,29.6269 7.7978,25.9139 8.0488,26.3569 L7.6558,27.2009 C7.4338,27.7139 7.0778,28.3699 6.8228,29.0689 C6.5628,29.7649 6.3028,30.4619 6.1078,30.9839 C5.9118,31.5039 5.7938,31.8549 5.7938,31.8549 C5.8438,31.3349 5.9318,30.8169 5.6948,30.9309 C4.9638,32.2269 5.3508,30.8359 4.7098,32.8129 C4.9998,32.8319 4.8828,33.4779 4.6778,34.2989 C4.4928,35.1269 4.3208,36.1639 4.3068,36.8979 C3.9278,37.5089 3.8508,37.6419 4.1778,36.1909 C3.9808,36.2329 3.8028,36.7519 3.6508,37.3479 C3.5328,37.9499 3.4788,38.6319 3.4088,38.9829 C3.4508,39.4069 3.3808,40.1079 3.4378,40.5589 C3.6658,39.9799 3.8558,40.2639 3.9618,41.5369 L4.0348,41.6139 C4.0828,40.5779 4.4258,39.2869 4.6538,38.0939 C4.9148,36.9029 5.2298,35.8289 5.1758,35.1459 L5.2698,35.5469 C5.4588,34.9829 5.6528,34.3939 5.8128,33.7999 C5.9678,33.2049 6.0878,32.6029 6.2078,32.0399 C6.5128,30.9389 6.8478,30.0009 7.3708,29.6309 C7.5818,29.8359 7.6118,29.2139 7.9568,29.4169 C7.9568,29.4169 7.9818,29.3089 8.0188,29.1469 C8.0678,28.9889 8.1318,28.7779 8.1968,28.5669 C8.3268,28.1429 8.4578,27.7189 8.4578,27.7189 L8.4518,28.1229 C8.4518,28.1239 9.7228,25.4289 9.7808,25.4569 L9.8028,25.5619 C10.2468,24.1799 10.5358,23.0279 10.8748,22.1669 C10.7338,22.0679 10.6348,22.1159 10.8088,21.6499 C11.0188,21.2039 11.2218,20.8939 11.4298,20.6389 L11.4298,20.6349 L11.4318,20.6359 C11.9178,20.0599 12.3678,19.7709 13.0308,19.1219 C13.0308,19.1219 12.9218,19.2609 12.7578,19.4699 C12.6078,19.6879 12.4068,19.9789 12.2058,20.2699 C11.8068,20.8529 11.4078,21.4359 11.4078,21.4359 C11.5158,21.7909 11.9068,21.7639 12.8598,20.7709 C12.5458,21.2339 12.5988,21.5549 13.0218,21.0139 C12.9878,20.8979 13.9448,19.4309 13.3608,19.8229 C13.7568,19.2899 14.2618,18.7089 14.8258,18.0859 C15.3878,17.4609 16.0068,16.7909 16.7088,16.1349 C17.3928,15.4649 18.0928,14.7559 18.7668,14.0029 C19.4728,13.2999 20.1688,12.5829 20.7958,11.7909 C18.9608,13.9919 22.6998,10.5259 20.5048,12.7739 C20.9798,12.4849 21.2798,12.2409 21.4928,12.0099 C21.7158,11.7929 21.8618,11.6069 21.9948,11.3949 C22.2628,10.9799 22.5148,10.5139 23.4218,9.8569 C23.6708,9.8759 22.4428,10.5889 22.2458,11.1609 C22.6248,10.8979 22.9768,10.6319 23.3108,10.3629 C23.6398,10.0859 23.9598,9.8219 24.2958,9.5999 C24.9488,9.1269 25.5548,8.6369 26.1658,8.1449 C26.8148,7.7319 27.4688,7.3119 28.1698,6.9049 C28.8678,6.4929 29.6788,6.2599 30.5338,5.9809 L30.7838,6.2809 C31.4008,6.0009 32.1358,5.8619 32.8828,5.6229 L32.8828,5.6229 Z M6.1648,53.8909 C6.2788,54.0739 6.3798,54.1139 6.3798,54.1139 C3.7218,50.1929 3.0378,46.0949 3.0568,43.5489 C2.7328,44.0459 2.5508,46.4189 2.6438,47.5549 L2.1148,46.6099 L2.3368,45.9549 L1.8978,44.2329 C1.6648,44.7349 1.7438,46.1619 1.7268,47.1349 C1.7688,47.1719 2.0118,47.9399 2.2878,48.7809 C2.6328,49.6109 3.0328,50.5099 3.2448,50.8869 C3.2448,50.8869 3.1718,50.2869 3.0978,49.6889 C3.0618,49.3909 3.0268,49.0939 2.9998,48.8709 C2.9658,48.6499 2.9728,48.4969 2.9728,48.4969 C2.9578,48.8259 3.1978,49.7499 3.4498,50.7459 C3.6908,51.7459 4.1648,52.7529 4.3878,53.3329 C4.5868,53.2769 4.1638,51.1889 3.7158,51.0349 C3.8828,50.7339 4.6788,53.0389 4.4818,51.4869 C5.3068,53.1229 6.1388,55.8699 6.7338,57.0939 L6.4138,57.5289 C6.9688,58.9429 7.3808,58.1289 8.1138,59.7419 C6.8368,57.9819 7.8678,60.3449 6.8768,58.9079 C7.0288,59.4729 6.4408,59.1879 7.4528,60.6539 C8.1158,61.0969 8.3148,61.5159 8.5128,61.9409 C8.7038,62.3659 8.8888,62.7989 9.5398,63.1669 C9.9728,64.0229 8.5908,62.6419 9.7158,64.1089 C11.3948,65.4489 11.4798,65.1769 11.9068,64.9469 C10.7228,63.4289 9.9488,63.7839 9.0658,62.4289 C9.0658,62.4289 9.2268,62.5539 9.4698,62.7409 C9.7158,62.9249 10.0208,63.1859 10.3718,63.4019 L11.7238,64.2879 C11.4218,63.7869 11.1478,63.4679 10.8828,63.2269 C11.3388,63.6559 11.7828,63.9679 12.2048,64.1859 C12.4468,64.3079 12.6518,64.4369 12.8608,64.5339 C11.6798,63.2699 10.6618,62.1139 10.6798,61.7549 L11.0018,61.7959 C10.7938,61.1879 10.0628,60.5199 9.6448,60.2569 C8.7708,59.0069 7.6448,57.8829 7.7738,57.4189 L8.2328,57.8219 C7.2878,56.2049 7.0908,56.0659 6.1648,53.8909 L6.1648,53.8909 Z M21.7148,71.8149 C21.7368,71.8729 21.8278,72.0439 21.9688,72.2709 L21.3848,72.0849 C21.0888,71.9989 20.8068,71.8829 20.8068,71.8829 C19.9278,71.2589 19.1968,70.6099 18.4958,69.9849 C17.8048,69.3419 17.0728,68.8249 16.1388,68.4569 C15.5328,67.7679 15.3618,67.2239 15.1788,66.7409 C15.5008,67.0319 15.7988,67.3099 16.0348,67.5559 C17.1748,68.2619 17.9248,68.6419 18.3568,69.0249 C18.8038,69.3849 18.9838,69.6799 19.1518,69.9379 C19.4918,70.4409 19.6998,70.9629 21.7148,71.8149 L21.7148,71.8149 Z M67.2108,24.4999 C66.6348,24.0219 65.7678,22.0849 65.3018,22.1599 C65.1408,22.0869 65.2668,22.5109 65.4178,22.9799 C65.6148,23.4899 65.8238,24.0349 66.0468,24.6129 C66.1178,24.6099 66.2148,24.7059 66.3348,24.8829 C66.2218,24.2729 66.1258,23.8639 66.5068,23.9889 C66.4518,25.6989 67.3818,25.2049 67.7658,26.9249 C68.2548,27.3749 67.4978,24.9629 67.2108,24.4999 L67.2108,24.4999 Z M68.0028,34.4929 L67.6468,34.1539 C67.6488,34.4829 67.6508,34.8179 67.6518,35.1619 C67.8008,35.0449 67.9298,34.9219 68.0028,34.4929 L68.0028,34.4929 Z M67.5488,37.5289 C67.5468,37.4629 67.5458,37.4389 67.5438,37.3759 C67.5138,37.7259 67.4838,38.0759 67.4528,38.4419 C67.4888,38.3019 67.5238,38.0319 67.5488,37.5289 L67.5488,37.5289 Z M56.7268,11.7339 C56.8518,11.8459 56.9568,11.9439 56.9978,12.0119 L56.7268,11.7339 Z M58.0318,12.2129 C56.9418,11.1579 57.0718,11.5379 56.7758,11.5319 C57.1958,11.8549 57.6158,12.1779 58.0298,12.4969 C57.9078,12.3329 57.8758,12.2189 58.0318,12.2129 L58.0318,12.2129 Z M58.3138,14.6339 C59.2258,15.5179 59.9568,16.5689 60.7068,17.5769 C61.0818,18.0799 61.3668,18.6469 61.6988,19.1679 C62.0228,19.6969 62.3528,20.2139 62.6008,20.7719 C61.9458,18.6339 61.1198,16.8369 61.0578,16.3489 C60.9858,15.8589 61.9928,16.5039 63.9448,19.8469 L64.2388,20.2629 C64.0558,19.7869 63.7768,19.1509 63.3408,18.5139 C62.9118,17.8739 62.4868,17.1319 61.9378,16.5149 C61.6628,16.3129 61.2318,15.9969 60.7398,15.6359 C60.4968,15.4639 60.2378,15.2819 59.9768,15.0969 C59.6948,14.9409 59.4078,14.7819 59.1318,14.6289 C58.0358,14.0229 57.1058,13.5769 57.0648,13.6479 C57.2558,14.1159 57.8598,14.3909 58.3848,15.0109 L58.3138,14.6339 Z M37.8338,47.9709 C37.9648,47.9329 38.0678,47.8849 38.1418,47.8229 C38.0638,47.8879 38.1488,47.9379 37.8338,47.9709 L37.8338,47.9709 Z M65.0358,50.1159 C64.9848,50.2829 64.9358,50.4569 64.8528,50.6189 C64.8528,50.6189 64.9188,50.3419 64.9118,50.3379 C64.6628,50.7249 64.3908,51.0949 64.1298,51.4689 C64.0618,51.6199 63.9868,51.7839 63.8818,51.9779 C63.9188,51.8969 63.9248,51.8189 63.9178,51.7649 C63.8298,51.8849 63.7448,52.0029 63.6598,52.1199 C63.5848,52.3939 63.4738,52.7679 63.2918,53.1529 C63.0958,53.5299 62.8648,53.9429 62.6348,54.3479 C62.1748,55.1589 61.7238,55.9449 61.4908,56.2829 C61.1758,56.7189 60.8028,57.1909 60.4348,57.6249 C60.0508,58.0439 59.6318,58.3879 59.3118,58.6519 C59.9138,58.1669 60.6208,57.4319 60.2638,57.5019 C58.9508,58.3879 58.1418,58.4759 56.1758,60.2779 C56.1978,60.3139 57.4648,59.4169 57.4638,59.4169 C57.4638,59.4169 57.3088,59.5769 57.0758,59.8169 C56.8368,60.0499 56.5378,60.4009 56.1808,60.6709 C55.4738,61.2509 54.7668,61.8299 54.7668,61.8299 C54.1198,61.9359 54.5178,61.7149 55.0558,61.3139 C55.5998,60.9239 56.3368,60.4529 56.4738,60.2129 C55.9278,60.6269 55.3428,60.9339 54.7868,61.2009 C54.2318,61.4719 53.6468,61.5849 53.1408,61.7439 C52.8858,61.8189 52.6418,61.8909 52.4108,61.9589 C52.1738,62.0099 51.9518,62.0619 51.7458,62.1229 C51.3348,62.2459 50.9908,62.4029 50.7238,62.6409 C50.4638,62.3489 50.0398,61.8089 48.3718,62.1399 C49.6618,62.3479 47.3788,62.5649 48.4548,62.8509 C47.8688,63.1369 46.4798,62.8849 46.3948,63.1719 L46.5528,63.0079 C45.0408,62.7519 44.0698,62.8059 43.2708,62.8929 C42.4738,63.0109 41.8558,63.2419 41.1838,63.2459 C40.7288,63.1709 40.3038,63.1019 39.9038,63.0359 C39.5118,62.9309 39.1448,62.8319 38.7958,62.7369 C38.0918,62.5589 37.4828,62.3319 36.9028,62.0889 C36.3178,61.8599 35.7548,61.6339 35.1888,61.3419 C34.6208,61.0589 34.0018,60.8089 33.3528,60.4399 C33.3718,60.1449 32.9698,59.2279 32.0028,58.6059 C31.6958,58.5859 30.9418,58.2829 30.2578,57.9179 C29.5738,57.5549 28.8998,57.2119 28.6538,57.2889 C30.2418,58.7449 30.2378,58.1079 31.3458,58.7169 C31.9918,59.6619 31.1648,59.1579 32.2778,60.1459 C32.0338,59.9749 31.6378,59.6969 31.1518,59.3839 C30.6668,59.0699 30.0838,58.7289 29.5508,58.3069 C28.4378,57.5289 27.4458,56.5639 27.1108,55.9819 L27.4888,56.2459 C26.7998,55.4729 26.6658,54.7509 26.2878,54.0659 C26.0948,53.7239 25.9118,53.3249 25.5838,52.9029 C25.2558,52.4789 24.8068,52.0119 24.2258,51.3889 L23.6708,50.7909 C23.5268,50.6439 23.3938,50.4869 23.3038,50.3639 C23.2098,50.2429 23.1468,50.1619 23.1468,50.1619 C23.2208,50.2099 23.2678,50.1929 23.3208,50.2099 C22.7018,49.0389 22.5828,48.5649 22.4678,48.0559 C22.3618,47.5409 22.0788,47.0839 21.4808,45.7509 C21.5788,45.9559 21.5798,45.8069 21.6768,46.0139 C21.6058,45.6029 21.4928,45.2079 21.3548,44.8239 C21.2378,44.4359 21.1248,44.0509 20.9868,43.6819 C20.8598,43.3099 20.6958,42.9539 20.5948,42.6049 C20.4988,42.2539 20.4108,41.9189 20.3508,41.6069 C20.6168,40.8039 20.7188,41.7569 21.0258,42.1819 C20.7308,39.3509 20.4938,36.2069 20.5608,34.2779 C20.5608,34.2779 20.5988,34.1629 20.6548,33.9909 C20.7278,33.8249 20.8248,33.6039 20.9228,33.3829 C21.1188,32.9439 21.3148,32.5059 21.3148,32.5059 C21.2118,33.0679 21.1388,33.6979 21.1498,34.1509 C21.1928,34.6139 21.2848,34.8919 21.4238,34.7529 C21.5528,33.7409 21.4128,33.9009 21.8978,32.5399 C22.0348,32.8489 22.0518,33.4869 22.1248,34.1879 C22.7498,32.8699 22.6068,32.6589 22.4718,32.5499 C22.3588,32.4569 22.1528,32.4279 22.9008,31.6289 C23.2718,30.7989 23.1868,30.1699 22.9848,29.9529 C22.9848,29.9529 23.0478,29.8659 23.1438,29.7369 C23.2518,29.6149 23.3948,29.4519 23.5378,29.2889 L24.1078,28.6469 C24.0098,28.4839 24.1798,27.9289 24.5278,27.2969 C24.8688,26.6569 25.3838,25.9509 25.8008,25.3959 C25.8048,25.1669 24.7928,26.0359 24.6158,26.5669 C24.4328,26.3209 25.2338,25.0109 25.9288,24.3049 C26.3008,24.4019 27.3958,23.2629 28.5218,22.4229 C29.6408,21.5679 30.7508,21.0519 30.4428,21.6849 C32.2408,20.5529 34.7678,19.6589 37.2308,19.6509 C38.4538,19.6259 39.6398,19.7789 40.6798,20.0319 C41.7078,20.3169 42.6118,20.6349 43.2848,20.9649 C43.6728,21.2789 44.2398,21.7629 44.5678,22.0969 C44.8828,22.4519 44.9658,22.6379 44.4178,22.4029 C45.7618,23.4949 46.7208,24.4259 47.5738,25.4749 C48.4178,26.5229 49.1028,27.7409 49.4818,29.4579 C49.4768,29.6089 49.3658,29.2289 49.2308,28.8359 C49.0998,28.4419 48.8848,28.0519 48.7988,28.1509 C49.3418,29.1659 49.5048,30.2089 49.6328,31.3769 C49.6558,31.9679 49.7348,32.5829 49.7368,33.2829 C49.7418,33.6319 49.7798,33.9949 49.7808,34.3839 C49.7668,34.7729 49.7608,35.1839 49.7648,35.6239 C49.7788,35.0319 49.6348,34.8579 49.5628,34.7759 C49.6248,34.7469 49.6718,35.1019 49.7118,35.5849 C49.7308,36.0639 49.7158,36.6639 49.7128,37.1239 C49.5698,37.6149 49.7288,36.4409 49.5858,36.7089 C48.9298,39.9849 47.7638,42.8039 45.7328,45.0989 C44.7158,46.2299 43.4788,47.2289 41.9728,47.8819 C40.4818,48.5329 38.7118,48.8979 36.8618,48.5589 C37.9178,48.7499 38.6558,48.5739 39.0928,48.4059 C39.5348,48.2399 39.6928,48.0119 39.6898,47.9219 C39.6898,47.9209 39.2168,48.0009 38.7358,48.0049 C38.4958,48.0229 38.2558,48.0209 38.0748,48.0029 C37.8948,47.9909 37.7748,47.9849 37.7748,47.9849 C37.0128,48.1929 35.5228,47.8919 34.3268,47.4119 C34.2278,47.2539 33.7538,46.8759 34.3488,47.0769 C33.5618,46.5009 32.9288,45.9429 32.3448,45.3789 C32.0538,45.0949 31.7608,44.8219 31.5058,44.5159 C31.2248,44.2259 30.9718,43.9149 30.7318,43.5829 C29.7578,42.2789 28.9288,40.5999 28.8198,38.2519 C28.8198,38.2519 28.9268,38.5959 29.0858,39.1109 C29.2248,39.6239 29.5128,40.2929 29.7848,40.9399 C30.3728,42.2439 31.2458,43.3319 31.2458,43.3319 C31.2458,43.3329 31.1418,43.0029 31.0978,42.6609 C31.0498,42.3239 31.0018,41.9879 31.0018,41.9879 C31.0018,41.9879 31.0828,42.1109 31.2048,42.2949 C31.3278,42.4779 31.4788,42.7249 31.6748,42.9419 C31.8618,43.1629 32.0328,43.3889 32.1818,43.5409 C32.3348,43.6889 32.4368,43.7869 32.4368,43.7869 C31.9418,42.5849 30.9928,41.7179 31.2858,41.4289 C31.4588,41.6669 31.7108,42.2869 31.8918,42.2269 C31.7088,41.6309 31.5668,41.3329 31.4318,41.0589 C31.2908,40.7899 31.1088,40.5689 30.9858,40.1019 C31.6298,41.2419 32.3848,42.9169 33.6178,44.0829 C34.7908,45.3089 36.3758,45.8899 37.5078,45.9349 C37.8668,45.9359 37.1838,46.0619 37.0958,46.1259 C38.0218,46.2689 38.6408,46.5309 39.8608,46.1929 C40.5358,45.7009 39.2498,46.1229 38.6598,46.0599 C38.7308,45.7769 39.0128,45.8059 39.6328,45.6539 C39.7288,45.8319 40.6258,45.6899 41.5638,45.3019 C42.5028,44.9219 43.4448,44.3019 43.9198,44.1519 C44.6088,43.5059 44.8318,43.1169 44.8718,42.9229 C44.9148,42.7279 44.7798,42.7179 44.6538,42.7109 C44.5268,42.7049 44.4078,42.7039 44.4638,42.5459 C44.5208,42.3879 44.7628,42.0909 45.2798,41.3939 C45.2798,41.3939 45.4988,41.2259 45.7248,41.0489 C45.9468,40.8719 46.1728,40.6839 46.1728,40.6839 C46.8568,38.6759 47.1878,35.9189 47.0918,33.6169 L47.1408,34.1129 C47.3448,34.4429 47.4138,33.8889 47.4888,33.6329 C47.5138,33.1749 47.4678,32.7229 47.3828,32.2899 C47.3198,31.8549 47.2078,31.4509 47.0938,31.0739 C46.9988,30.6919 46.8888,30.3419 46.8008,30.0169 C46.7218,29.6889 46.6878,29.3749 46.6788,29.0849 C46.1348,28.1689 45.3708,27.0279 44.4318,26.0939 C43.4978,25.1529 42.4008,24.4399 41.4558,24.0399 C41.3438,23.6639 42.0108,23.8669 42.7798,24.3389 C43.5598,24.7959 44.3168,25.6079 44.7528,25.8679 C44.7528,25.8679 44.4298,25.4629 44.0808,25.0859 C43.8998,24.9039 43.7178,24.7219 43.5828,24.5859 C43.4358,24.4629 43.3378,24.3809 43.3378,24.3809 C44.2748,25.2239 44.7458,25.4819 45.4658,25.9609 C44.9648,25.1399 44.4348,24.7469 43.9198,24.4129 C43.3888,24.0909 42.8428,23.8419 42.0898,23.4539 C42.2798,23.3979 42.1408,23.1859 41.4288,22.8149 L41.0688,23.0529 C41.0688,23.0199 41.0028,22.9589 40.7928,22.8369 C40.7928,22.8369 40.6128,22.7789 40.3408,22.7069 C40.0728,22.6209 39.7048,22.5469 39.3358,22.4869 C38.9708,22.4129 38.5918,22.4089 38.3178,22.3709 C38.0378,22.3689 37.8508,22.3669 37.8508,22.3669 C38.4658,22.5689 38.4398,22.9099 39.1468,23.0489 C38.9328,22.7929 39.5698,22.8499 40.2608,23.1229 C39.5818,23.1279 40.8608,23.5529 40.7458,23.7549 C39.4778,23.0989 37.6688,22.9529 36.7398,23.1019 C36.7438,23.0919 36.4128,22.7859 36.4128,22.7859 C34.9728,22.7839 33.5468,23.4229 32.6258,23.7579 L32.8438,23.4759 C31.1418,24.0759 29.8428,25.3349 28.4708,26.2619 C28.0488,27.0069 27.5778,27.8149 27.2458,28.6569 C26.8848,29.4599 26.6618,30.3809 26.4908,31.0399 C26.4838,31.2429 26.3338,31.5999 26.1208,32.0599 C25.9218,32.5229 25.5288,33.0539 25.3048,33.6739 C24.7458,34.8809 24.3468,36.3199 24.5348,37.2459 C24.4308,37.3599 24.4218,35.9849 24.3978,35.3229 C24.2458,35.9179 24.2368,36.4789 24.2258,36.9199 C24.2558,37.3669 24.2438,37.6959 23.9958,37.8649 C24.4488,35.1649 23.6018,37.9659 23.6158,36.7099 C23.5458,37.3649 23.5108,38.0409 23.4878,38.6299 C23.5368,39.2209 23.6038,39.7239 23.6858,40.0379 C23.6658,37.9569 24.3308,40.7589 24.1068,38.6799 C24.4408,40.3059 24.8018,42.3599 25.2218,44.1989 C25.0258,44.2389 25.0118,44.4859 25.1538,45.1979 C25.1408,45.2049 25.6178,45.6399 25.6288,45.6329 C25.7838,46.0519 25.5328,45.6909 25.3168,45.4279 C25.1518,45.1509 24.9378,44.9979 25.2478,45.8639 C25.8298,46.6439 26.3738,47.9429 27.0848,49.0359 C27.7508,50.1509 28.5818,51.0149 29.1618,51.0489 C29.8198,52.4049 27.1488,49.1279 28.1898,51.1129 C27.9238,50.9109 27.6708,50.6539 27.4308,50.3849 C27.2008,50.1089 27.0168,49.7989 26.8258,49.5259 C26.6408,49.2499 26.4628,49.0009 26.2988,48.8099 C26.1518,48.6089 26.0058,48.4709 25.8558,48.4319 C26.5908,49.4879 25.7638,49.0349 26.2108,49.7529 C26.2108,49.7529 27.2438,50.8139 27.2718,50.7879 L27.0848,50.5259 C28.8188,52.2449 31.4618,55.0549 34.2088,56.5689 C34.8438,56.7829 35.4198,56.9849 35.9928,57.1299 C36.5648,57.2589 37.1208,57.3839 37.6878,57.5119 C38.2608,57.6029 38.8308,57.7259 39.4368,57.8729 C40.0558,57.9619 40.6928,58.1599 41.4158,58.3109 C40.4838,58.4019 43.8128,59.0379 41.8618,59.1579 C42.5328,59.4379 43.2428,59.4789 43.7738,59.4699 C44.3058,59.4749 44.6618,59.3599 44.6788,59.2549 C43.4678,59.1099 44.2538,59.1579 43.2438,58.9679 C43.6028,58.8679 44.1698,58.9169 44.7258,58.9089 C45.2818,58.9039 45.8338,58.9639 46.1588,59.0399 C45.8598,59.0259 45.9738,59.0679 45.9098,59.1429 C47.3508,59.2279 46.5848,58.8569 47.5888,58.6899 C47.9568,59.0039 49.8128,58.4179 50.7308,58.2749 C50.7308,58.2759 51.0288,58.0919 51.2868,57.8359 C51.5488,57.5999 51.8098,57.3629 51.8098,57.3629 C51.2628,57.9339 53.0248,57.0069 53.3178,57.1049 C54.0798,56.4729 54.5198,55.7189 55.7018,54.9159 C55.3458,55.4359 56.8588,54.2389 57.1078,54.4529 C57.6118,54.0499 58.0048,53.5969 58.3508,53.1559 C58.6938,52.7119 58.9088,52.1749 59.1628,51.7039 C59.3918,51.2099 59.6888,50.7789 59.9158,50.2759 C60.1598,49.7829 60.4598,49.3079 60.8798,48.8359 C60.9068,48.9369 60.8268,49.4729 61.2768,48.8869 C61.5108,48.3489 61.9108,47.4289 62.1578,46.8619 L62.1578,46.8829 C62.1598,46.8709 62.1608,46.8629 62.1628,46.8509 C62.2748,46.5689 62.3188,46.3829 62.2508,46.3469 C62.3178,45.8069 62.2638,45.3599 62.2978,44.8239 C62.3068,44.2779 62.4418,43.6529 62.5048,42.6239 C62.3008,42.6489 62.1738,43.0929 62.0188,43.5979 C61.8468,44.0979 61.7138,44.6869 61.6518,45.0529 L61.7868,45.7829 C61.0478,46.1329 61.1158,47.4639 60.7608,47.8169 C60.7418,47.4689 60.8238,47.0229 60.9678,46.5199 C61.0398,46.2679 61.1278,46.0019 61.2258,45.7269 C61.2978,45.4389 61.3718,45.1379 61.4468,44.8299 C61.5888,44.2129 61.8278,43.6059 61.9048,42.9749 C61.9958,42.3489 62.0698,41.7529 62.0928,41.2379 C61.3058,42.3439 60.6638,44.8939 59.6238,46.9029 L60.2438,46.0879 L59.7498,47.1759 L60.5908,46.2819 C60.3148,46.7899 60.0998,47.2789 59.8968,47.7639 C59.6378,48.2129 59.3898,48.6539 59.1158,49.0929 C59.7288,48.0579 60.4328,47.8869 59.9958,48.4429 C59.4828,48.9419 59.3548,49.2729 59.2758,49.6019 C59.2028,49.9319 59.1838,50.2569 58.8358,50.6589 C59.2548,50.2349 59.6118,49.5439 59.5428,50.0949 C57.9548,51.5309 57.8338,52.1969 56.2348,53.1549 C56.5358,53.3069 56.1328,53.7039 55.6498,54.0959 C55.4128,54.2979 55.1658,54.5119 54.9808,54.7059 C54.7788,54.8729 54.6458,55.0349 54.6618,55.1749 C54.6618,55.1749 54.8428,55.0679 55.0238,54.9629 C55.2108,54.8639 55.3648,54.7129 55.3688,54.7199 C55.3688,54.7199 55.2978,54.8129 55.1918,54.9499 C55.0728,55.0709 54.9138,55.2339 54.7558,55.3959 C54.4338,55.7279 54.1118,56.0609 54.1118,56.0609 C53.2728,56.2809 53.5238,55.9639 53.6928,55.7649 C53.8368,55.5039 53.9358,55.4289 52.7818,55.8209 C50.7938,56.7479 51.0368,57.2529 49.3038,57.8229 C49.5498,57.5619 49.9868,57.2559 50.5248,56.9839 C51.0448,56.6579 51.6648,56.3499 52.2938,56.0479 C52.2898,56.0389 52.0968,56.1299 51.8778,56.1539 C51.6648,56.1909 51.4528,56.2279 51.4528,56.2279 C51.5348,56.1389 51.7078,56.0309 51.9338,55.9169 C52.1468,55.7719 52.4098,55.6099 52.6928,55.4539 C53.2758,55.1769 53.8518,54.7429 54.2578,54.4929 C53.1718,55.7129 54.9678,54.2329 55.7038,53.9179 C55.5748,53.5699 54.8288,54.2739 55.5708,53.2789 C55.1428,53.6489 54.8978,53.8599 54.6228,54.0969 C54.3298,54.3029 53.9768,54.4869 53.3678,54.8379 C54.6918,54.0809 55.0008,53.3219 55.2888,52.7259 C55.4398,52.4319 55.5268,52.0729 55.7378,51.7449 C55.9378,51.3959 56.2668,51.0889 56.7188,50.5559 C56.0758,51.6779 57.3738,50.5209 57.6148,50.4909 C57.7808,50.2299 58.0578,49.8569 58.2838,49.4639 C58.4828,49.0509 58.6718,48.6509 58.7658,48.4099 L58.0998,48.5379 C58.7588,47.0989 59.9348,47.0249 60.2338,45.0599 C60.0868,44.7429 59.4548,46.5349 59.5468,46.2069 C60.3068,43.7469 61.2618,43.0879 62.1758,40.7769 C62.0448,40.6159 61.7248,40.5809 61.5698,39.7179 C61.8358,40.0239 62.0718,39.4219 62.1648,40.4039 C62.2808,40.0099 62.3188,39.5639 62.3248,39.1289 C62.3228,38.9129 62.3198,38.6979 62.3178,38.4919 C62.2908,38.2849 62.2638,38.0869 62.2398,37.9049 C61.9918,39.5749 61.8348,37.1809 61.6668,36.8809 C61.7608,36.0239 61.9558,37.1489 62.0218,37.6929 C62.1178,37.0059 62.6508,36.1679 62.1598,35.7669 C62.3328,35.7519 62.5468,36.2419 62.6808,36.9159 C62.8098,37.5859 62.9958,38.4559 62.9038,39.1169 C62.9038,39.1169 62.9478,38.8949 62.9928,38.6729 C63.0408,38.4519 63.0498,38.2249 63.0488,38.2249 C63.1908,38.8629 63.0768,38.9719 62.9208,39.8569 C63.2858,39.0179 63.5488,39.1249 63.7438,39.3619 C63.6818,39.4739 63.6778,39.2879 63.6168,39.3939 C63.4348,40.1159 63.4468,40.6899 63.6368,40.5479 C63.9708,41.2849 64.0398,39.5599 64.3258,39.0749 C64.3688,38.6899 64.3388,38.2969 64.3278,37.9149 C64.3278,37.9149 64.0348,36.9069 63.7208,35.9489 C63.3348,35.0089 62.9468,34.0689 62.9468,34.0689 C62.8608,33.2699 62.7488,32.6959 62.7908,32.1509 C62.7968,31.6109 62.9118,31.0979 62.8558,30.4839 L62.4208,30.2299 C62.2808,29.5429 62.1938,28.8609 62.1738,28.4579 C62.1428,28.0579 62.2498,27.9109 62.6128,28.2849 C62.5138,28.3649 62.5978,28.5369 62.6388,28.8469 C62.6968,28.8749 62.7458,28.9359 62.7938,29.0169 C62.8208,29.0419 62.8448,29.0519 62.8708,29.0719 C62.6788,28.3249 62.3858,27.7639 62.2358,27.3499 C62.0688,26.9429 61.9688,26.7019 61.9518,26.6599 C63.2408,28.9849 62.6288,26.5869 63.3788,26.7959 C63.3788,26.7959 63.1388,26.1539 62.8568,25.5339 L62.2378,24.3219 C62.6728,25.9109 61.9518,24.4679 61.6548,23.9779 C61.9838,23.6479 60.6858,22.0629 60.3078,21.2179 L60.4098,21.2369 C60.2288,20.8459 59.9218,20.3379 59.5788,19.8199 C59.4048,19.5649 59.2358,19.2959 59.0428,19.0599 C58.8348,18.8379 58.6338,18.6229 58.4508,18.4269 C58.3618,18.5539 57.1078,17.8229 56.3898,17.6699 C57.4398,19.0419 56.6318,18.3859 56.5648,18.6279 C56.4738,18.4729 56.2758,18.2259 56.2078,18.2409 C55.9648,18.1389 56.3338,18.5649 56.2578,18.6959 C56.5678,19.0209 56.8788,19.3479 57.1798,19.6639 C57.4928,19.9719 57.7818,20.2859 58.0238,20.6039 C58.5298,21.2149 59.0238,21.6849 59.4438,21.8819 C59.3368,21.2739 58.7198,21.1829 58.5068,20.5629 C58.8988,20.8549 59.2568,21.2609 59.6078,21.7649 C59.9128,22.3029 60.2178,22.9309 60.5848,23.6299 C60.5948,23.6259 60.5388,24.2209 60.5268,24.2259 L61.2848,25.6269 C60.8768,25.0779 60.7368,25.5569 60.0458,24.0779 C59.8718,24.3829 60.7318,25.5439 61.0178,26.5119 L61.5558,26.8739 C61.2808,26.7619 61.8848,28.8299 61.1308,27.4639 C61.1308,27.4629 60.8828,26.8909 60.5918,26.3459 C60.2798,25.8149 59.9668,25.2839 59.9668,25.2839 L59.9668,26.0089 C59.9668,26.0089 59.7548,25.5479 59.5428,25.0869 C59.4338,24.8579 59.3428,24.6199 59.2478,24.4569 L59.0888,24.1859 C59.0888,24.1859 59.5098,24.5089 59.4968,24.5179 C58.6178,23.1429 58.6888,22.8399 58.7308,22.5319 C58.7928,22.2169 58.7568,21.9389 57.6688,20.6929 C57.2118,20.3809 56.7328,20.1079 56.3038,19.6419 C56.0798,19.4179 55.8678,19.1429 55.6178,18.8519 C55.3488,18.5839 55.0648,18.2749 54.7518,17.9139 C55.8048,18.8159 55.0978,17.7689 55.6748,17.9419 C55.2258,17.3579 54.8778,17.0389 54.4958,16.8329 C54.0928,16.6269 53.7358,16.5229 53.3608,16.3329 C53.2218,15.8719 53.1318,15.5189 54.1998,16.4679 C54.6888,16.1729 52.7098,15.3209 52.9498,14.8129 C51.9798,14.1299 51.2628,13.6909 50.6158,13.4849 C49.9718,13.2739 49.4508,13.1889 48.9298,13.0739 C48.4138,12.9429 47.8588,12.8879 47.1958,12.6029 C46.5368,12.2919 45.7128,11.9589 44.5968,11.2839 L44.8558,11.1499 C44.0708,10.9029 43.3658,10.7699 42.7248,10.5579 C42.0798,10.3739 41.4748,10.2899 40.8848,10.1339 C40.2948,9.9549 39.7068,9.9599 39.0908,9.8649 C38.4738,9.7559 37.8308,9.7999 37.1248,9.8329 C37.1278,9.8569 36.5658,9.6279 36.0008,9.5689 C35.4248,9.4829 34.8508,9.3959 34.8508,9.3959 C35.3328,9.2659 36.7018,8.6779 36.0368,8.4719 C37.2098,9.0349 38.4038,8.7949 39.5978,9.3039 C39.7418,9.1679 39.2568,9.0009 39.0458,8.8789 C39.4188,8.9279 39.6908,9.0269 39.9908,9.1149 C40.2928,9.1969 40.6208,9.2709 41.1158,9.3499 C41.0958,9.2159 40.0458,8.8419 40.8688,8.9479 L42.1278,9.5979 C42.5828,9.6389 42.8778,9.6509 43.0978,9.6419 C43.3188,9.6239 43.4658,9.5699 43.6208,9.5289 C43.9278,9.4609 44.2838,9.3929 45.3038,9.8679 C44.8028,9.9789 43.8518,10.2149 43.0478,10.0149 C43.9578,10.3679 41.7528,9.8249 42.5528,10.2569 C43.2788,10.2489 43.7888,10.3869 44.3408,10.5599 C44.8998,10.7219 45.4718,11.0479 46.4188,11.2649 C46.1838,11.2379 46.0908,11.3009 45.6488,11.1459 C45.6488,11.1459 45.8028,11.2249 46.0328,11.3419 C46.2608,11.4689 46.5768,11.5939 46.8708,11.7899 C47.4638,12.1579 48.0568,12.5269 48.0568,12.5269 C47.8148,12.2529 48.3688,12.4289 48.9688,12.6699 C49.5578,12.9329 50.2128,13.2119 50.2108,12.9669 C48.9658,12.0509 48.4598,11.8579 47.9348,11.5899 C47.6708,11.4589 47.3968,11.3179 47.0028,11.0949 C46.5998,10.9049 46.0698,10.6599 45.3028,10.2649 C45.7658,10.4129 46.3288,10.5119 46.8728,10.5609 C47.4188,10.6019 47.9168,10.6819 48.2808,10.6409 C48.3008,10.6689 48.3408,10.7049 48.4348,10.7629 C49.1128,10.6559 48.6698,10.2999 49.0068,9.6709 C48.5718,9.5859 48.1988,9.4669 47.8518,9.3259 C47.4968,9.2059 47.1628,9.0779 46.8258,8.9299 C46.1528,8.6379 45.4528,8.2829 44.4688,8.1529 C44.0028,8.4279 45.3828,8.9229 46.2908,9.2559 C46.2908,9.2559 45.8758,9.1489 45.4598,9.0419 C45.0438,8.9419 44.6198,8.8919 44.6198,8.8919 L44.9938,8.8229 C44.9938,8.8229 43.9838,8.4669 42.9728,8.1109 C41.9418,7.8479 40.9098,7.5849 40.9098,7.5849 C41.6998,7.7439 42.0158,7.5809 42.4748,7.5069 C41.9318,7.3769 41.4138,7.1389 40.8498,6.9159 C40.9108,7.2979 40.7878,7.5489 40.2618,7.4829 C39.5898,7.3879 38.9928,7.2589 38.4568,7.1659 C37.9208,7.1129 37.4458,7.0439 37.0208,6.9639 C36.1678,6.7649 35.5238,6.7019 34.9868,6.5269 C34.8808,6.5469 34.7608,6.5679 34.6648,6.5859 C34.9208,6.7579 34.4428,6.9609 33.8298,7.2159 C33.2258,7.5299 32.4818,7.8689 32.1288,8.1429 C32.0568,7.6969 30.7438,8.3149 29.9348,8.3809 C29.6998,8.9379 30.4598,9.3479 31.4068,9.4129 C32.1528,8.9049 32.3868,8.8219 32.4778,8.6549 C32.5748,8.5049 32.5498,8.3599 32.9008,7.9819 C32.9008,7.9819 33.0718,7.9189 33.3288,7.8249 C33.5888,7.7429 33.9268,7.5729 34.2858,7.5129 C35.0028,7.3439 35.7198,7.1739 35.7198,7.1739 L35.1038,7.6009 C35.4658,7.6049 35.8188,7.5679 36.1468,7.5179 C36.4748,7.4759 36.7818,7.4759 37.0388,7.4519 C37.5548,7.4189 37.8788,7.4189 37.8178,7.6539 C37.4328,7.8079 36.9368,7.8329 36.4408,7.8529 C35.9468,7.8999 35.4598,8.0109 35.1108,8.1949 L36.0398,8.2719 C35.2538,8.5889 35.0468,8.4939 34.7798,8.3909 C34.5188,8.2919 34.1888,8.1299 33.2588,8.5279 C34.0418,8.7649 33.0878,8.6009 32.3338,9.0309 C32.6948,9.1009 33.5148,8.8919 34.1958,8.7609 C34.8928,8.7219 35.4288,8.7379 35.1798,9.1059 C34.9438,9.2039 34.6178,9.2199 34.2368,9.2049 C33.8638,9.2399 33.4348,9.2459 32.9908,9.2629 C32.0958,9.2439 31.1818,9.5099 30.6718,10.0289 L30.7068,9.9369 C29.7538,10.1579 29.2078,10.6149 28.7918,10.9099 C28.3878,11.2459 28.1258,11.4889 27.8798,11.8059 C27.4728,11.9329 27.0578,12.2179 26.6548,12.5279 C26.4558,12.6839 26.2538,12.8419 26.0578,12.9949 C25.8688,13.1619 25.6938,13.3449 25.5138,13.4889 L25.4148,13.3159 L24.4298,14.1839 C24.5638,13.8539 24.8728,13.6179 25.2498,13.3759 C25.6248,13.1229 26.0708,12.8759 26.5348,12.5899 L26.2158,12.3549 C26.8848,12.2019 27.2988,11.8769 27.6498,11.4779 C27.9958,11.0719 28.3198,10.7109 28.6998,10.3359 C28.4058,10.5689 28.0198,10.7709 27.6188,10.9979 C27.2288,11.2539 26.8218,11.5209 26.4448,11.7689 C26.0708,12.0229 25.7218,12.2419 25.4958,12.4899 C25.2758,12.7499 25.1538,12.9839 25.1928,13.1819 L24.2378,13.4509 L23.9708,13.8259 C23.2428,14.0309 23.5228,13.2739 24.5638,12.3569 C24.8068,12.2849 24.9268,12.2489 24.9148,12.3559 C25.2968,11.7979 25.6738,11.3289 27.0068,10.5699 L26.4168,11.1669 C26.8238,10.9329 27.2018,10.6589 27.5788,10.4479 C27.9618,10.2539 28.3168,10.0569 28.6328,9.8629 C29.2628,9.4649 29.7468,9.1019 29.9968,8.8559 C27.4078,9.7109 24.9888,11.1049 22.9518,12.8439 C22.8498,13.9439 22.5488,14.9819 22.7918,15.7829 C22.5078,16.1009 22.1948,16.4409 21.8638,16.7829 C21.5328,17.1829 21.1848,17.5949 20.8328,17.9889 C20.1388,18.7849 19.3758,19.4909 18.7768,20.0249 L18.7528,19.8119 C18.2038,20.3669 17.7848,20.9539 17.4788,21.4729 C16.8008,21.9879 17.5128,20.7799 17.0648,21.1589 L16.3348,22.2679 C16.0108,22.8409 15.6868,23.4139 15.6868,23.4139 C15.5928,23.2469 15.8578,22.7089 16.2318,22.1079 C16.6418,21.5269 17.1548,20.8819 17.4788,20.4619 C17.3758,20.6359 17.1668,20.9859 17.2848,20.9149 C17.7328,20.4839 18.1838,19.7179 18.6508,19.0639 C19.1408,18.4259 19.6088,17.8799 19.9788,17.8499 C20.3198,17.3439 19.4318,19.0059 20.8228,17.5159 C21.8778,16.6079 21.8508,16.0629 21.8428,15.8559 C21.7818,15.7899 21.3648,16.0469 21.0098,16.3349 C20.6558,16.6159 20.3588,16.8279 20.5278,16.4639 C19.8208,17.2799 19.7238,17.7649 18.6548,18.6529 C19.3528,17.8539 20.0358,16.5059 20.6428,16.2949 C21.8048,14.5939 20.9828,14.1629 20.2288,14.7799 C20.5778,14.7539 17.8588,17.8989 20.0158,16.0749 C19.4538,17.2629 17.8798,18.9199 17.0938,20.3549 L17.0818,20.2499 L15.8968,21.8649 C15.9908,21.5839 16.3018,21.0579 16.1608,20.9209 C16.1608,20.9209 16.0768,21.0769 15.9518,21.3109 C15.8248,21.5429 15.6578,21.8529 15.5218,22.1779 C15.2338,22.8169 14.9458,23.4549 14.9458,23.4549 C15.5458,21.9859 14.1908,24.0939 13.6488,24.5839 C13.7368,24.9979 13.3888,26.0209 14.0548,25.2489 C14.8688,24.4209 14.2968,24.6099 14.8758,23.7389 L14.4178,25.2109 L14.3148,25.2919 L14.1938,26.2469 C13.1478,27.9149 13.8688,25.0329 12.8748,27.3989 L13.5078,27.3869 C11.9848,29.8229 9.8668,32.9679 9.6188,34.9849 C9.4988,34.3749 9.1148,33.9729 8.5988,34.6299 C8.7828,34.2219 8.9958,33.5909 9.2258,32.9129 C9.5078,32.2469 9.7888,31.5289 10.0118,30.9249 C10.1028,30.8299 10.0928,31.2649 9.9828,31.8699 C9.8728,32.4769 9.6398,33.2449 9.4058,33.8799 C9.6648,33.7949 9.8208,33.5399 9.9398,33.2079 C10.0838,32.8819 10.1828,32.4779 10.2768,32.0839 C10.4648,31.2979 10.6318,30.5549 11.0638,30.6679 C11.9988,29.1689 12.1108,28.4919 12.2148,27.8699 C12.3428,27.2599 12.5058,26.7199 13.5128,25.5499 C13.2068,25.3059 13.7858,24.6959 13.6088,24.3799 C13.0728,24.5759 12.5598,25.4829 11.9918,26.5099 C11.8538,26.7689 11.7098,27.0339 11.5668,27.3009 C11.4418,27.5759 11.3168,27.8509 11.1938,28.1219 C10.9418,28.6599 10.6808,29.1679 10.4018,29.5869 C10.4648,29.4009 10.5918,29.0249 10.5598,28.9219 C9.7748,30.1329 9.6728,30.7329 9.4218,31.6949 L9.5128,31.5989 C9.2148,33.3269 8.7998,32.4639 8.3228,33.3749 C8.2588,33.7679 7.7138,35.0789 8.0608,34.9449 C8.0608,34.9449 8.0028,35.0469 7.9158,35.1999 C7.8218,35.3529 7.7128,35.5589 7.6248,35.7709 C7.4308,36.1939 7.2378,36.6169 7.2378,36.6169 L7.6878,36.6319 C7.5068,37.6309 7.0918,37.7909 7.2578,38.7509 L7.6418,38.8559 C7.5728,38.8459 8.2798,36.4469 8.2788,36.4469 C8.1218,37.7039 8.5698,36.8779 8.3378,38.2249 C8.3018,37.4409 8.1868,37.6889 8.0288,38.1529 C7.8998,38.6179 7.7838,39.2969 7.5868,39.3469 L7.6668,40.3749 L7.5978,40.1079 C7.2658,40.8739 7.6558,41.0579 7.5518,41.9649 C7.6928,41.4369 7.8098,40.9929 7.9338,40.5269 C8.0648,40.0549 8.1358,39.5469 8.0888,38.8439 C8.1318,39.3589 8.1458,40.1089 8.1378,40.7839 C8.2038,41.4609 8.2408,42.0639 8.2358,42.3009 C8.3078,43.3249 8.1278,44.0269 8.1028,44.9939 C7.9838,44.0809 7.6898,44.2519 7.4428,44.1929 C7.3188,44.1619 7.2068,44.0719 7.1298,43.7479 C7.0958,43.5859 7.0538,43.3659 7.0538,43.0669 C7.0678,42.7659 7.1018,42.3849 7.1588,41.9069 C7.2318,41.9819 7.1998,42.2899 7.1478,42.4089 C7.4118,42.1599 7.4308,41.5959 7.3608,40.9769 C7.3028,40.3569 7.2398,39.6769 7.2008,39.2499 C6.8828,39.4279 6.9358,38.5259 6.5668,40.0149 C6.6938,39.7769 6.8088,40.1159 6.8398,40.6779 C6.9258,41.2429 6.9468,42.0289 6.7928,42.7369 L6.1838,42.4719 C6.1838,42.4719 6.1728,42.6049 6.1558,42.8029 C6.1318,43.0009 6.1198,43.2659 6.1328,43.5289 C6.1408,44.0579 6.1478,44.5869 6.1478,44.5869 L6.1088,44.3909 C5.9448,44.7969 5.9348,45.3739 6.0788,46.0119 C6.2148,46.6519 6.3678,47.3639 6.3628,48.1099 C6.6128,48.5979 6.8678,49.8469 7.2108,50.7079 C7.5708,51.5669 7.8608,52.0589 7.8968,51.1459 C7.8988,52.5099 8.8578,53.3709 9.4988,54.5939 C9.4988,54.5939 9.4538,54.4939 9.4158,54.3319 C9.3718,54.1729 9.3138,53.9609 9.2568,53.7489 C9.1408,53.3279 9.0248,52.9079 9.0248,52.9079 C10.2368,54.5789 9.7498,54.1829 11.1368,55.2519 C11.0658,55.4749 11.1148,55.8599 10.8038,55.6619 C11.4558,56.8499 12.3418,58.2629 13.3238,59.4419 C13.7778,60.0559 14.3198,60.5629 14.7868,61.0029 C15.2548,61.4439 15.6848,61.7929 16.0818,61.9699 C17.4618,63.3249 17.2088,64.1149 19.6058,65.6039 C20.1358,65.8769 19.5818,64.8689 20.9678,66.0879 C21.0468,66.2009 19.2568,65.4219 20.9608,66.5909 C21.7028,66.8079 22.4098,67.3009 23.1488,67.8619 C23.9018,68.3999 24.7488,68.9199 25.6838,69.2049 C26.5268,69.8009 28.1688,70.4919 27.6788,70.6829 C26.9608,70.2879 26.0568,69.8919 25.3118,69.5399 C24.5748,69.1729 23.9588,68.9129 23.7588,68.9079 C24.0678,68.8159 22.8518,68.1639 23.9908,68.5809 C22.9728,67.8919 22.6528,67.6739 22.2938,67.5579 C21.9548,67.4149 21.6038,67.3329 20.7588,66.6319 C20.5348,66.6859 21.4648,67.6089 21.9458,67.7369 C21.8248,67.9449 20.8268,67.4649 20.1148,67.0049 C19.3848,66.5719 18.8358,66.2859 19.4618,67.1179 C20.4088,67.8589 21.2318,68.0319 21.9518,68.2579 C22.3138,68.3689 22.6558,68.4869 22.9998,68.6759 C23.3558,68.8449 23.7168,69.0769 24.1058,69.4439 C23.6688,69.3799 23.1838,69.1509 22.6828,68.8979 C22.1878,68.6339 21.6538,68.3809 21.0568,68.3259 L22.4048,69.4189 C22.4048,69.4189 22.7208,69.5009 23.0448,69.5649 L23.6838,69.6989 L23.5818,69.7309 C24.1918,70.1959 24.6688,70.4879 25.0778,70.6729 C25.4998,70.8349 25.8498,70.8999 26.1968,70.9389 C26.9018,70.9999 27.5628,71.0319 28.8668,71.3869 C27.5698,70.4849 29.5388,70.6909 28.5558,70.0619 C30.2058,70.6559 31.3748,71.1899 31.2258,71.6579 C27.9638,70.8689 30.8678,72.1199 27.7718,71.4519 C28.1808,71.8159 26.7668,71.8659 28.5058,72.6219 C30.6188,73.0709 28.0798,71.9859 30.1018,72.6129 C30.2008,72.7019 30.3058,72.7949 30.2108,72.8389 C31.2208,72.8979 31.2578,73.2919 32.4658,73.3859 L32.1698,73.3959 C33.4498,74.1759 33.7918,73.4989 34.8948,74.1799 C34.5168,73.6609 35.7728,74.1329 36.5858,74.0309 C35.9848,73.8419 35.5658,73.5329 34.9968,73.2199 C34.4338,72.8859 33.6988,72.6209 32.5498,72.2219 C32.1748,72.4169 32.2948,72.6339 31.2868,72.4509 L32.8178,72.9259 C32.4748,72.8629 32.2008,72.8539 31.8808,72.8109 L30.4698,72.1709 C32.3908,72.5879 31.6488,71.9949 32.5238,71.9569 C34.1468,72.6539 33.9388,72.2879 34.9698,72.6989 C34.7298,73.1179 38.0868,74.3199 40.1078,74.8709 C39.7898,74.8159 39.3828,74.7429 39.1608,74.7039 C37.6208,74.7359 40.1208,75.2369 40.1618,75.3619 L41.2848,75.3159 C41.0758,75.3139 40.7768,75.3709 41.2338,75.5079 C42.7298,75.6229 42.6968,75.1429 44.1738,75.2219 C44.2678,75.4779 42.9758,75.7189 43.8898,75.9429 C44.1838,76.2079 45.1788,76.8359 47.2058,76.7069 C47.3528,76.6259 47.8718,76.5909 48.4638,76.5479 C48.3818,76.5609 48.2778,76.5699 48.2398,76.5869 L49.5608,76.8399 C48.4388,77.3039 47.2838,76.6439 46.1198,76.9989 L46.0028,77.3919 C45.5518,77.3709 45.0178,77.3889 44.5228,77.4349 C44.0288,77.4539 43.5738,77.5009 43.2808,77.5749 C44.6528,77.7999 44.9568,77.6809 46.5048,77.6759 C46.7138,77.9379 45.6108,78.0719 45.4488,78.0919 L45.6938,77.8759 C44.7778,77.6829 44.0868,77.7199 43.3288,77.7579 C42.5738,77.7899 41.7398,77.9229 40.6028,77.6869 C40.2588,77.6159 40.4748,77.6209 40.5618,77.5579 C39.6118,77.5899 38.6878,77.4459 37.7908,77.2299 C36.8928,77.0109 35.9988,76.8259 35.0478,76.8629 C35.0478,76.8619 35.6778,76.7929 35.6778,76.7929 C34.4318,76.6719 31.9748,76.4199 29.5148,75.9459 L29.4438,76.0849 C29.6718,76.2679 28.7928,75.9579 28.3558,75.6989 L28.3598,75.6979 C27.1368,75.4139 25.9458,75.1409 25.0078,74.8139 C25.2538,75.0349 25.5878,75.2799 26.0008,75.4979 C26.4378,75.4789 28.5208,76.4719 28.3748,75.9689 C29.2668,76.6119 31.0198,76.7659 31.6998,77.1759 C30.4378,76.4869 32.7498,77.1099 33.0548,76.9209 C33.4388,77.2969 35.0598,77.4509 34.7978,77.7419 C35.0418,77.9029 34.1898,77.3339 33.5598,77.3789 C32.0448,77.3029 36.1008,78.3729 34.2428,78.1859 C35.4098,78.3799 36.7578,78.5949 38.1068,78.8409 C39.4698,78.9919 40.8328,79.2229 42.0548,79.1559 C42.0548,79.1559 41.7238,79.0859 41.3928,79.0159 C41.0608,78.9499 40.7348,78.8509 40.7348,78.8509 C41.7868,79.0589 44.3168,79.2139 44.4918,79.3999 C43.6948,79.3719 42.7698,79.2639 41.7458,79.2319 C41.6518,79.6189 44.1908,79.4799 44.2818,79.7349 L47.2728,79.2259 L45.9858,79.1429 C46.7998,78.9599 49.4888,79.3579 51.5208,79.2039 C50.3988,79.8399 48.4608,79.4139 46.3608,79.4969 C44.8118,79.6279 47.2918,80.0649 45.8228,80.1239 C46.1978,80.2679 47.1598,80.3009 47.6348,80.1829 L48.2208,80.2859 C46.8838,80.7599 43.9398,80.5219 41.9228,80.6899 C42.1018,80.6549 42.2588,80.6149 42.3198,80.5649 C40.8198,80.2559 39.3098,79.9569 37.8158,79.8689 C38.5638,80.1459 38.8918,80.0909 39.3438,80.1049 C39.3818,80.2269 37.9818,80.0809 37.4338,80.0969 C38.7758,80.4889 37.6348,80.4329 38.4918,80.6579 C37.5698,80.6499 36.8558,80.4299 35.7798,80.1519 C35.2578,79.8499 36.2998,80.0029 36.2358,79.7389 C35.0898,79.6449 34.7198,78.9849 33.0578,78.8039 C35.1618,79.4859 32.3618,79.1629 31.5668,79.1129 L31.9218,79.2289 C31.1548,79.3289 30.5808,79.1179 30.1948,78.7229 C31.0948,78.9159 31.9188,79.2369 31.7548,78.8809 C31.1718,78.7359 30.6068,78.5339 29.9298,78.4069 L30.5828,78.4049 C30.5828,78.4049 29.8708,78.1829 29.1588,77.9589 C28.4418,77.7519 27.7468,77.4729 27.7468,77.4729 C27.2168,77.5369 26.3428,77.5769 25.8048,77.7679 C25.2098,77.3039 24.2248,77.0219 23.5518,76.8139 L23.8898,76.8549 C22.7438,76.1409 20.0518,74.8379 19.7088,74.9129 C19.3368,74.5949 21.0138,75.1009 21.9988,75.2829 C22.9858,75.4649 23.3018,75.3489 20.3248,73.8459 C18.1528,72.5269 18.5978,73.6289 17.2048,73.0579 C17.2048,73.0579 17.3168,73.0409 17.2178,72.9239 C16.3118,72.2379 16.0708,72.3839 15.2348,71.9319 C15.7268,72.4219 16.5378,73.0099 16.8568,73.1089 C16.4058,73.1529 14.9258,71.7039 14.0828,71.3589 C15.2528,71.7169 12.4748,69.8039 13.3118,70.1829 C12.9238,69.7569 12.4888,69.3789 12.0708,68.9929 C11.6588,68.6009 11.2358,68.2379 10.8218,67.9119 C9.9778,67.2799 9.2408,66.7069 8.7018,66.3709 C8.3928,65.5859 7.8968,65.1189 7.3628,64.4969 C6.8348,63.8769 6.1098,63.2439 5.5268,62.0739 C5.7228,62.4229 6.2038,62.9599 6.5048,63.4209 C7.1008,63.8849 6.7308,63.3309 6.4238,62.8619 C6.1188,62.3869 5.8898,61.9859 6.6858,62.7819 C6.3468,62.4419 6.5058,62.8719 6.8528,63.2239 C7.4108,63.8739 8.0318,64.4009 8.0308,64.1249 L7.0368,62.3169 L7.5428,62.8209 C7.5428,62.8209 7.4478,62.6529 7.3048,62.4009 C7.1558,62.1529 6.9788,61.8089 6.8198,61.4509 C6.4938,60.7509 6.1678,60.0509 6.1678,60.0509 C6.0588,60.0209 6.1378,60.3099 6.1808,60.4579 C4.3938,57.3989 2.5608,53.7019 1.8968,50.6079 C1.6088,50.5269 1.3218,50.0159 1.0388,49.2489 C0.7928,48.4769 0.6208,47.4379 0.4318,46.3389 C0.3198,45.2339 0.2488,44.0579 0.1728,42.9989 C0.1668,41.9419 0.1278,40.9949 -0.0002,40.3279 C0.2648,41.0559 0.7778,41.4519 1.0148,41.0449 C1.0238,41.3289 1.1198,41.7659 1.1978,42.2829 C1.2368,42.5429 1.2698,42.8219 1.2848,43.1159 C1.3198,43.4109 1.3488,43.7199 1.3398,44.0369 C1.1798,44.2389 1.0658,45.8379 0.8248,44.8279 C1.1498,48.3699 1.2408,44.3159 1.6998,45.3369 C1.3288,41.5099 1.1278,39.1799 1.2788,36.6799 L1.4148,36.6429 L1.6058,34.7719 C1.1938,36.2469 0.6258,36.0549 1.2818,34.1509 L1.2558,34.3949 C1.4798,33.8619 1.7508,33.0409 2.0058,32.1269 C2.2538,31.2099 2.5158,30.2089 2.8968,29.4189 L3.0388,28.1859 C3.7428,26.5569 4.4268,26.8129 5.0038,26.4719 C6.2178,24.0719 6.6428,22.5449 7.3728,20.7149 C8.0928,20.1459 10.4658,16.9259 9.5128,18.8529 C10.0958,17.7929 10.0418,17.1499 10.2518,16.4289 C10.4578,15.7099 10.8918,14.8539 12.5438,13.5419 C12.5438,13.5419 12.4088,13.7779 12.2918,14.0309 C12.1738,14.2829 12.0568,14.5359 12.0568,14.5359 C12.6538,13.7429 13.3898,12.9499 14.0838,12.0829 C14.7838,11.2259 15.4858,10.3469 16.2978,9.5469 C17.0898,8.7569 17.7638,7.9529 18.4928,7.4119 C19.1968,6.8489 19.7948,6.4119 20.2198,6.1739 C19.9178,7.0579 21.0218,6.3649 22.5208,5.7889 C23.2598,5.4889 24.0238,5.1139 24.7178,4.9309 C25.4208,4.7599 25.9908,4.6879 26.2528,4.8259 C25.9798,4.7209 27.3198,3.9889 27.4908,3.8079 C27.8528,3.8009 28.4128,3.7219 28.9118,3.3449 C27.3338,3.7019 29.6538,2.0099 26.8688,3.4499 C27.4588,2.8289 28.2498,2.2989 29.2968,1.7159 C29.8138,1.4049 30.4398,1.2119 31.1428,0.9989 C31.4948,0.8949 31.8678,0.7939 32.2648,0.6979 C32.4638,0.6519 32.6678,0.6049 32.8768,0.5569 C33.0908,0.5329 33.3098,0.5099 33.5338,0.4859 L33.5328,0.8829 C33.5228,0.7939 30.7358,1.2969 30.7358,1.2969 C31.0798,1.5159 29.6578,1.7939 29.1558,2.1559 C29.4668,2.0709 29.7368,1.9959 29.9718,1.9319 C30.2118,1.8899 30.4178,1.8679 30.5908,1.8489 C30.9388,1.8129 31.1598,1.8119 31.2978,1.8309 C31.5728,1.8699 31.5168,1.9919 31.4638,2.1039 C31.4108,2.2159 31.3608,2.3189 31.6368,2.3229 C31.7748,2.3249 31.9948,2.3019 32.3358,2.2439 C32.6768,2.1879 33.1368,2.0719 33.7788,2.0219 C34.2418,1.7169 33.9318,1.8529 35.2628,1.6199 C34.6308,1.6949 34.5488,1.9769 35.5528,1.8849 C35.5528,1.8849 35.7908,1.7829 36.0288,1.6809 C36.2708,1.6039 36.5118,1.5269 36.5118,1.5269 C37.4188,1.8709 36.6698,1.9509 35.9118,2.0549 C35.1498,2.2109 34.3688,2.3469 35.1338,2.5049 C34.6588,2.6289 34.0988,2.7539 33.5398,2.8789 C32.9808,3.0039 32.4378,3.2329 31.9688,3.3939 C31.0338,3.7429 30.4368,4.0469 30.7978,4.2249 C33.7788,3.7589 33.3208,2.6589 36.6208,2.6849 L36.9698,2.9029 C38.1078,2.7729 38.3118,2.4169 38.9648,2.2329 C39.0138,2.3619 39.2998,2.4859 40.0338,2.6079 C41.0328,2.4649 41.8808,2.4039 42.6908,2.4539 C43.5018,2.4959 44.3378,2.4349 45.2878,2.4789 C44.0858,2.1999 43.1948,2.1109 42.5128,1.9249 C41.8278,1.7399 41.2968,1.6529 40.7638,1.5329 C40.2308,1.4179 39.6888,1.3009 38.9558,1.2019 C38.2158,1.1729 37.2788,1.1749 35.9858,1.2649 C36.3878,1.1799 37.5058,1.1209 38.5648,1.0189 C39.6198,0.9409 40.6078,0.9449 40.7598,0.6719 L40.6618,1.0589 C41.0928,1.0619 41.5248,1.0659 41.9618,1.0689 C42.3918,1.1149 42.8288,1.1689 43.2788,1.2369 C43.7288,1.3059 44.1908,1.3899 44.6678,1.4939 C45.1448,1.6009 45.6128,1.7919 46.1128,1.9779 L44.8178,1.7969 C47.6108,2.3599 48.9798,3.8459 51.1888,4.2279 C50.5328,3.8229 49.9448,3.5909 49.4778,3.4629 C50.1828,3.6429 50.9158,3.9759 51.6368,4.3609 C52.3608,4.7429 53.1038,5.1299 53.7218,5.5859 C53.7218,5.5859 54.4848,5.8709 55.2478,6.1569 C55.6338,6.2969 56.0158,6.4489 56.2878,6.5819 C56.5658,6.7089 56.7508,6.7939 56.7508,6.7939 C56.6168,6.9379 58.2368,8.1409 57.2638,7.8159 C58.1098,8.5919 58.7638,9.0939 59.3958,9.4589 C60.0188,9.8439 60.5988,10.0429 61.1238,10.5289 C61.8538,11.5549 61.4388,11.2049 60.7838,10.6409 C60.1248,10.0849 59.1928,9.4579 58.9348,9.5809 C60.1058,10.6129 61.2968,11.8739 62.4138,12.9189 C62.9168,13.4869 63.4038,14.0129 63.8558,14.4779 C64.3188,14.9359 64.7228,15.3469 65.0378,15.6959 C64.7438,15.0789 64.5858,14.7809 64.6808,14.7529 C64.6768,14.8869 65.4128,16.0049 65.8258,16.6299 L66.3248,16.9269 C66.5988,17.4969 66.6588,17.7689 66.5708,17.7959 C66.4968,17.8159 66.2608,17.5969 65.8888,17.2079 C66.2088,17.7069 66.5958,18.2229 66.9608,18.7679 C67.3268,19.3099 67.6608,19.8829 67.7728,20.5009 C67.1678,19.6759 66.6398,18.6729 66.1538,17.7759 C65.6028,16.9149 65.1228,16.1459 64.7568,15.7629 C65.3848,16.6049 65.8018,17.2789 66.1188,17.8749 C66.3868,18.4959 66.5628,19.0369 66.7538,19.6029 C67.1588,20.7269 67.5298,21.9799 68.5688,24.3589 C68.4698,24.4579 67.9828,23.7069 68.2778,24.6519 C69.0558,26.8129 68.9638,25.0669 69.4528,25.6749 C69.1078,24.8369 68.9088,24.2109 68.7938,23.6509 C68.6478,23.1009 68.5708,22.6229 68.5208,22.0699 L68.9008,22.4439 C68.8278,22.5529 69.2728,23.6159 69.2468,23.9799 L69.7378,24.1249 C69.2278,24.1609 69.5168,25.9739 69.9858,27.3179 C70.0048,26.5709 70.0028,26.2949 70.0588,26.1409 C70.1208,25.9849 70.2458,25.9499 70.4438,25.6849 C71.0188,26.5929 70.9518,27.2169 70.9878,27.8319 C70.9798,28.4599 71.0728,29.0849 71.4778,30.1819 C71.3388,30.0259 70.8338,28.0939 71.0448,29.8039 C71.2138,31.2169 71.5508,30.9779 71.7928,31.9219 C71.2628,30.8939 71.0098,31.2029 70.3978,30.1369 C69.8898,27.7109 70.2108,29.1489 69.5348,26.8249 L69.6528,28.8869 C69.1428,26.8729 68.8908,27.5229 68.7088,27.3929 C69.0848,30.8629 69.8328,29.8539 70.0528,32.1279 C70.4628,33.1899 69.8308,29.9999 70.3348,31.6749 C70.5408,33.8129 70.6898,32.1239 70.9918,34.5449 L70.7958,34.1459 C70.5798,34.8959 70.9488,35.6139 70.9508,36.4789 C71.0238,37.4469 72.3758,35.3789 72.2018,39.4289 C72.1118,39.2209 72.0398,39.1429 71.9958,39.1389 C71.9958,39.1389 71.2238,38.0839 70.4418,37.1259 C69.6888,36.1579 68.8078,35.2889 68.8088,35.2889 C68.9078,38.9919 68.2448,43.3269 66.5078,47.2559 C65.5738,47.9579 67.0148,44.2349 66.5918,44.3889 L67.1548,42.5689 C67.2768,42.6489 67.0688,43.6289 66.9358,44.3959 C66.8058,45.1599 66.6438,45.6909 67.1748,44.9359 C67.4638,43.2419 67.8488,42.0559 67.9468,40.8349 C68.0208,40.2299 68.0868,39.6279 68.1168,38.9759 C68.0938,38.3199 68.0398,37.6129 67.9348,36.8099 C67.5678,37.2969 67.6238,38.3409 67.5148,39.5189 C67.3978,40.6909 67.3208,42.0269 66.7918,42.9669 C66.9098,42.5509 66.9988,42.1609 67.0558,41.7869 C67.0838,41.4069 67.0918,41.0449 67.0938,40.6889 C66.9608,41.6439 66.6708,42.5999 66.3898,43.5859 C66.1558,44.5859 65.7118,45.5539 65.3258,46.5659 L65.3138,47.0829 C65.8568,45.7189 66.2418,44.7669 66.3068,44.6489 C65.9628,45.5669 65.7418,46.4419 65.6538,47.1349 C65.5638,47.8259 65.5178,48.3029 65.7198,48.4639 L65.8858,48.1469 L65.7138,48.8669 L65.0358,50.1159 Z" id="Fill-120" fill="#FFC50A" mask="url(#mask-8)"></path>
                    </g>
                    <path d="M47.0898,78.061 C47.5998,77.967 48.8298,77.977 48.5878,77.691 C48.6038,77.85 48.0538,77.861 47.5878,77.87 C47.1198,77.864 46.7358,77.866 47.0898,78.061" id="Fill-123" fill="#FFC50A"></path>
                    <path d="M48.5742,78.4067 C48.6622,78.3317 48.6002,78.2097 49.1562,78.1877 C49.1562,78.1877 48.7742,78.2217 48.3902,78.2357 C48.0062,78.2537 47.6222,78.2697 47.6222,78.2697 L48.5742,78.4067 Z" id="Fill-125" fill="#FFC50A"></path>
                    <path d="M50.2349,80.5474 C51.0649,80.2674 51.5799,80.1084 52.8879,79.9724 C53.4769,80.7024 50.7629,80.4334 50.1949,81.1444 C52.6709,81.0714 53.3529,80.2874 55.3049,79.8524 C54.7819,79.8024 53.5249,79.8894 52.3969,80.0014 C51.2689,80.1064 50.2599,80.2534 50.2349,80.5474" id="Fill-127" fill="#FFC50A"></path>
                    <g id="Group-131" transform="translate(49.000000, 80.566900)">
                        <mask id="mask-10" fill="white">
                            <use xlink:href="#path-9"></use>
                        </mask>
                        <g id="Clip-130"></g>
                        <path d="M0.1777,1 C0.1777,1 0.5207,0.949 0.8637,0.897 C1.2057,0.837 1.5487,0.775 1.5487,0.775 L1.4097,0.737 C1.4097,0.737 1.0687,0.796 0.7257,0.855 C0.3837,0.906 0.0397,0.957 0.0397,0.957 L0.1777,1 Z" id="Fill-129" fill="#FFC50A" mask="url(#mask-10)"></path>
                    </g>
                    <path d="M24.3408,68.6626 C24.3708,68.3936 23.5958,68.2766 23.2428,68.1016 C23.4968,68.2946 23.8648,68.5586 24.3408,68.6626" id="Fill-132" fill="#FFC50A"></path>
                    <path d="M42.6689,28.3413 C42.6689,28.3413 42.7279,28.4203 42.8319,28.5583 C42.9469,28.6863 43.0699,28.9133 43.2359,29.1713 C43.5529,29.6993 43.9389,30.4663 44.1999,31.3453 C44.4929,32.1993 44.6519,33.1653 44.7569,33.8783 C44.8199,34.5613 44.8829,35.0193 44.8589,35.0103 C44.6949,32.9963 44.4069,30.5663 42.6689,28.3413" id="Fill-134" fill="#FFC50A"></path>
                    <path d="M6.3037,46.686 C6.5867,47.862 6.8447,48.688 7.2247,49.483 C7.3967,49.883 7.5627,50.283 7.7237,50.725 C7.9307,51.155 8.1417,51.624 8.3547,52.18 C8.0417,50.634 7.6787,49.692 7.2567,48.78 C7.0327,48.329 6.9227,47.866 6.7957,47.36 C6.7017,46.85 6.5737,46.294 6.6997,45.619 L6.4757,46.15 C6.3897,46.417 6.3037,46.686 6.3037,46.686" id="Fill-136" fill="#FFC50A"></path>
                    <path d="M8.3462,47.2407 C7.9552,47.6817 7.5502,45.5917 7.2892,45.9387 C7.5952,47.4657 7.8222,46.5997 7.9682,47.9807 L8.3462,47.2407 Z" id="Fill-138" fill="#FFC50A"></path>
                    <path d="M5.3574,60.6548 C5.3574,60.6548 5.1804,60.5078 5.0204,60.3458 L4.7044,60.0198 C4.7044,60.0198 5.1214,60.6008 5.1334,60.5918 L5.3574,60.6548 Z" id="Fill-140" fill="#FFC50A"></path>
                    <path d="M8.5381,36.978 L8.5811,37.252 C8.5811,37.252 8.9641,36.158 8.9971,36.164 C8.9731,36.158 8.5381,36.978 8.5381,36.978" id="Fill-142" fill="#FFC50A"></path>
                    <path d="M8.6274,37.5254 L8.5814,37.2524 L8.6274,37.5254 Z" id="Fill-144" fill="#FFC50A"></path>
                    <path d="M3.9351,60.1694 L4.2181,60.7824 C4.3651,61.0874 4.5361,61.3744 4.5361,61.3744 L5.0771,61.8154 L4.4811,61.0114 C4.1901,60.6044 3.9351,60.1694 3.9351,60.1694" id="Fill-146" fill="#FFC50A"></path>
                    <path d="M2.3687,48.5845 C2.3687,48.5845 2.6757,49.6685 2.7017,49.6615 C2.5827,49.4575 2.5957,47.9055 2.3687,48.5845" id="Fill-148" fill="#FFC50A"></path>
                    <polygon id="Fill-150" fill="#FFC50A" points="11.2339 30.3032 11.6129 29.1782 11.5179 29.2642 11.1399 30.3862"></polygon>
                    <path d="M0.959,39.689 C0.498,40.445 1.184,37.37 0.647,38.972 C0.498,40.451 0.764,39.871 0.959,39.689" id="Fill-152" fill="#FFC50A"></path>
                    <path d="M8.5806,25.1748 C8.6726,25.0238 8.7576,24.8588 8.8176,24.6858 C8.7186,24.8758 8.6416,25.0378 8.5806,25.1748" id="Fill-154" fill="#FFC50A"></path>
                    <path d="M8.5806,25.1748 C8.2786,25.6568 7.8716,26.0838 7.7946,26.4878 C8.2476,25.9248 8.3516,25.6918 8.5806,25.1748" id="Fill-156" fill="#FFC50A"></path>
                    <path d="M12.123,19.6958 L11.805,20.1028 C11.97,19.5668 11.846,19.7868 11.686,20.2558 C11.379,20.7108 11.488,20.7508 11.512,20.8478 C11.486,20.9628 11.459,21.0778 11.43,21.2018 C11.488,21.0378 11.54,20.8888 11.584,20.7618 C12.075,20.0738 12.359,19.6418 12.123,19.6958" id="Fill-158" fill="#FFC50A"></path>
                    <path d="M32.5249,10.7676 C31.0959,11.0736 30.7089,11.1706 30.6889,10.8766 C29.9889,11.0376 29.7609,11.3026 29.5999,11.5056 C29.4399,11.7166 29.3579,11.9186 28.9969,12.1496 C30.4109,11.3786 30.7719,11.4406 32.5249,10.7676" id="Fill-160" fill="#FFC50A"></path>
                    <path d="M28.9966,12.1494 C28.8376,12.2314 28.6856,12.3094 28.5006,12.4034 C28.7156,12.3144 28.8666,12.2314 28.9966,12.1494" id="Fill-162" fill="#FFC50A"></path>
                    <path d="M5.3291,24.6299 C5.3291,24.6299 5.3851,24.2989 5.4621,23.9819 C5.5361,23.6589 5.6081,23.3359 5.6081,23.3359 L5.4181,23.7629 C5.4181,23.7629 5.3931,23.9779 5.3681,24.1939 C5.3391,24.4059 5.3291,24.6299 5.3291,24.6299" id="Fill-164" fill="#FFC50A"></path>
                    <path d="M34.6558,10.4819 C34.3828,10.4629 33.9718,10.5979 33.7468,10.5459 C33.7358,10.6899 34.0258,10.6549 34.2858,10.5859 C34.5488,10.5319 34.7908,10.4839 34.6558,10.4819" id="Fill-166" fill="#FFC50A"></path>
                    <path d="M27.0288,7.2656 C26.7938,7.2136 25.7178,7.7616 25.2888,7.9966 C25.9038,7.6406 26.6708,7.9106 27.0288,7.2656" id="Fill-168" fill="#FFC50A"></path>
                    <path d="M38.9019,9.2588 C38.6179,9.1888 38.1859,8.9908 38.3919,8.7748 C37.9569,8.9308 37.3799,9.3348 38.9019,9.2588" id="Fill-170" fill="#FFC50A"></path>
                    <polygon id="Fill-172" fill="#FFC50A" points="30.2246 6.0566 29.9436 6.0546 28.7906 6.6346"></polygon>
                    <path d="M24.1221,4.2271 C22.8021,5.2221 26.8201,3.8091 24.4221,5.2631 C27.8021,4.0311 23.9621,4.9651 26.3931,3.8731 C24.9361,4.4361 24.0391,4.4141 24.1221,4.2271" id="Fill-174" fill="#FFC50A"></path>
                    <path d="M26.3926,3.8726 C26.6056,3.7926 26.8316,3.6936 27.0766,3.5856 C26.8006,3.6926 26.5816,3.7896 26.3926,3.8726" id="Fill-176" fill="#FFC50A"></path>
                    <path d="M47.9404,5.937 C47.7264,5.883 47.5754,5.859 47.4344,5.842 C47.6024,5.884 47.7654,5.916 47.9404,5.937" id="Fill-178" fill="#FFC50A"></path>
                    <path d="M34.6636,1.4629 L33.4556,1.8329 C33.1556,1.9149 32.8616,2.0249 32.6456,2.1279 C32.4286,2.2209 32.2846,2.2829 32.2846,2.2829 C33.0446,1.8909 34.4926,1.7549 35.6946,1.5179 C36.9006,1.3679 37.8876,1.3069 37.7626,1.0479 C37.0796,1.0029 36.3216,0.9609 35.6576,1.0659 C34.9936,1.1749 34.4226,1.3169 34.0996,1.4559 L34.6636,1.4629 Z" id="Fill-180" fill="#FFC50A"></path>
                    <path d="M54.1348,17.5181 L53.3808,17.1381 L54.1238,17.8351 C53.9478,17.5931 54.5938,17.6651 54.1348,17.5181" id="Fill-182" fill="#FFC50A"></path>
                    <path d="M54.2588,17.9697 C54.2668,17.9697 54.1238,17.8357 54.1238,17.8357 C54.1458,17.8727 54.2028,17.9157 54.2588,17.9697" id="Fill-184" fill="#FFC50A"></path>
                    <path d="M43.8442,4.7788 C43.1442,4.5878 42.5712,4.4748 41.9092,4.4168 C42.1622,4.5678 43.8922,5.0398 43.8442,4.7788" id="Fill-186" fill="#FFC50A"></path>
                    <path d="M58.2075,21.085 C58.2075,21.085 58.0135,20.826 57.8185,20.566 C57.5995,20.331 57.3805,20.096 57.3805,20.096 C57.3805,20.096 57.6075,20.361 57.8345,20.627 L58.2325,21.211 L58.2075,21.085 Z" id="Fill-188" fill="#FFC50A"></path>
                    <path d="M60.2554,26.7983 L60.2554,27.0343 C60.2854,27.0193 60.7534,27.9923 60.7534,27.9923 L60.7734,27.7463 C60.7734,27.7463 60.6524,27.5053 60.5324,27.2623 C60.4114,27.0223 60.2554,26.7983 60.2554,26.7983" id="Fill-190" fill="#FFC50A"></path>
                    <path d="M63.9087,14.0684 C63.5467,13.5804 63.1377,13.2214 62.8267,13.0344 C62.4967,12.8624 62.2907,12.8424 62.3667,12.9854 C62.3667,12.9854 62.4697,13.0884 62.6237,13.2434 C62.7627,13.4094 62.9477,13.6324 63.1317,13.8544 L63.8657,14.7494 C63.7937,14.0514 63.4577,14.2504 62.6787,13.1524 C62.6787,13.1524 62.9847,13.3764 63.2937,13.6054 C63.6007,13.8364 63.9087,14.0684 63.9087,14.0684" id="Fill-192" fill="#FFC50A"></path>
                    <path d="M42.6299,57.6294 C42.8289,57.5584 43.3529,57.5794 43.8379,57.6634 C44.3239,57.7654 44.7749,57.8884 44.8159,57.9964 C44.5819,58.1344 43.6039,58.0914 44.1999,58.3234 C44.1989,58.3234 44.5669,58.2134 44.9189,58.0444 C45.2639,57.8924 45.6099,57.7384 45.6099,57.7384 C46.5179,57.9484 46.1959,58.1494 45.4879,58.3254 C45.1349,58.4014 44.6889,58.5194 44.2649,58.5504 C43.8409,58.5814 43.4429,58.6094 43.1969,58.6414 C43.6869,58.7104 44.0949,58.7434 44.4609,58.7584 C44.8249,58.7334 45.1469,58.6914 45.4689,58.6504 C46.1199,58.6004 46.7549,58.4024 47.7599,58.3244 C47.1609,58.3334 46.7709,58.1894 46.4569,58.0864 C46.4129,57.8684 46.8439,57.7664 47.4479,57.7144 C47.7489,57.6834 48.0809,57.6034 48.4249,57.5574 C48.7679,57.5034 49.1209,57.4624 49.4189,57.3454 C48.5959,57.3854 49.0199,57.0924 49.5159,56.7654 C49.6099,56.7244 49.6679,56.6804 49.7059,56.6384 L49.8719,56.5274 L49.7329,56.5674 C49.7279,56.5174 49.6799,56.4684 49.5569,56.4164 C49.3249,56.5174 49.0979,56.5864 48.8799,56.6374 C48.6529,56.6574 48.4359,56.6584 48.2319,56.6554 C47.8209,56.6404 47.4729,56.6504 47.1419,56.6484 C47.5079,56.9854 46.9479,57.0584 46.1909,57.1084 C45.4229,57.0884 44.4739,57.0184 44.0319,57.0484 L43.0249,57.0154 L42.6499,56.9414 C42.5879,56.8384 42.7149,56.7924 43.2959,56.7244 C42.8099,56.7994 41.2409,56.4434 41.3329,56.6724 C41.3329,56.6724 41.1079,56.6084 40.7699,56.5134 C40.4319,56.4214 39.9779,56.3104 39.5389,56.1264 C38.6419,55.8324 37.7849,55.4124 37.7839,55.4124 C37.6889,55.3364 37.5969,55.2544 37.5409,55.1704 C37.4009,55.1574 37.3639,55.1824 37.3639,55.2224 C37.3639,55.2224 37.1229,55.1274 36.7309,54.8944 C36.3379,54.6624 35.7459,54.3874 35.1089,53.9324 C33.7949,53.0924 32.1479,51.7774 30.8119,50.2224 C29.4519,48.6824 28.4509,46.9314 27.9049,45.5814 C27.3399,44.2334 27.1419,43.3004 27.1409,43.3004 C27.1709,43.6784 27.2499,44.0264 27.3059,44.3884 C27.3739,44.7454 27.3839,45.1264 27.5339,45.5064 C26.5919,44.5594 27.9949,46.7654 27.4349,46.6294 C27.0769,46.1754 26.7379,45.3984 26.7319,44.8904 C26.4589,44.7864 26.4829,45.5274 26.2029,45.5484 C26.5009,46.5944 26.9029,47.1094 27.4179,47.5314 C27.6609,47.7504 27.9039,47.9604 28.1349,48.2344 C28.3919,48.4974 28.6589,48.8124 28.9089,49.2724 C28.6509,49.3574 28.0549,48.9564 28.9019,50.0774 C28.9019,50.0774 28.6269,49.8344 28.6359,49.8294 C30.2559,51.4084 29.2869,51.6254 30.8089,52.1684 L30.5029,52.4194 C30.9639,52.6994 31.6069,53.1394 32.2069,53.6334 C32.8649,54.0614 33.4639,54.5824 33.9759,54.8494 L33.8749,54.8734 C35.3249,55.5974 35.7499,55.7254 36.1719,55.9904 C36.3829,56.1194 36.6039,56.2584 36.9909,56.4234 C37.3789,56.5794 37.8909,56.8754 38.7469,57.1074 C38.7469,57.1074 38.3209,57.0864 37.8969,57.0294 L37.0499,56.8914 C38.1069,57.6164 38.5799,57.1884 39.3779,57.5574 C39.2929,57.6084 39.3989,57.9534 38.5749,57.7264 C38.5749,57.7254 39.6689,57.9674 40.7589,58.0544 C41.2969,58.1414 41.8439,58.1094 42.2429,58.1334 C42.6419,58.1444 42.9069,58.1514 42.9069,58.1514 C43.9309,57.9464 42.7459,57.8604 42.6299,57.6294" id="Fill-194" fill="#FFC50A"></path>
                    <path d="M47.7598,58.3247 C47.9738,58.3037 48.2168,58.2687 48.4978,58.2027 C48.2208,58.2397 47.9858,58.2807 47.7598,58.3247" id="Fill-196" fill="#FFC50A"></path>
                    <path d="M26.9063,42.2573 L27.1413,43.3003 C27.0983,42.9703 27.0263,42.6343 26.9063,42.2573" id="Fill-198" fill="#FFC50A"></path>
                    <path d="M52.7827,55.7358 C52.1017,55.8528 53.0857,55.2778 53.0827,55.0648 C53.0947,55.0898 52.5817,55.3428 52.0807,55.6188 C51.8317,55.7598 51.5827,55.9018 51.3767,55.9648 C51.1787,56.0448 51.0457,56.0968 51.0457,56.0968 C51.1147,56.2338 50.9647,56.4788 51.0587,56.5908 C51.0597,56.5908 51.5087,56.4178 51.9417,56.2088 L52.7827,55.7358 Z" id="Fill-200" fill="#FFC50A"></path>
                    <path d="M50.3394,56.0796 C50.3094,56.2196 50.1084,56.3706 49.8724,56.5276 C49.8724,56.5276 49.9474,56.5066 50.0614,56.4756 C50.1754,56.4446 50.3284,56.4076 50.4684,56.3376 L51.0464,56.0976 C50.9954,55.9956 50.8244,55.9486 50.3394,56.0796" id="Fill-202" fill="#FFC50A"></path>
                    <path d="M53.4185,63.5981 L52.8335,63.8441 L51.9445,64.2241 C51.9445,64.2241 52.3185,64.0811 52.6935,63.9391 C53.0655,63.7931 53.4185,63.5981 53.4185,63.5981" id="Fill-204" fill="#FFC50A"></path>
                    <path d="M43.7769,64.2788 C44.4859,64.5808 45.8929,64.3908 46.3459,64.3378 C44.7539,64.3238 45.4439,64.2808 43.7769,64.2788" id="Fill-206" fill="#FFC50A"></path>
                    <polygon id="Fill-208" fill="#FFC50A" points="45.7651 66.8149 44.0591 66.9189 44.2161 66.9669"></polygon>
                    <path d="M26.3774,33.8843 C26.4494,33.7023 26.5184,33.5273 26.5904,33.3433 C26.4814,33.5863 26.4204,33.7493 26.3774,33.8843" id="Fill-210" fill="#FFC50A"></path>
                    <path d="M25.9712,43.481 C25.8272,40.822 26.7082,45.081 27.1002,44.098 C27.0542,44.11 26.5892,42.805 26.5892,42.805 L26.7642,42.889 C26.7642,42.889 26.7382,42.788 26.6992,42.636 C26.6562,42.484 26.6002,42.282 26.5842,42.075 C26.5262,41.664 26.4672,41.252 26.4672,41.252 C26.2492,41.615 26.2612,41.883 25.9802,41.841 C25.8782,40.69 26.0092,40.507 26.1132,40.401 C26.2222,40.297 26.3702,40.258 26.5262,39.455 C26.4952,39.455 26.5792,38.841 26.6162,38.223 C26.6212,37.913 26.6732,37.605 26.7292,37.375 C26.7742,37.144 26.8042,36.99 26.8042,36.99 L26.8422,37.205 C26.8802,36.998 26.8652,36.899 26.8362,36.819 C26.8362,36.819 26.8592,36.689 26.9002,36.46 C26.9212,36.229 27.0432,35.91 27.1582,35.522 C27.3472,34.739 27.7832,33.72 28.2412,32.697 C28.5132,32.195 28.7842,31.693 29.0382,31.222 C29.3052,30.787 29.5332,30.41 29.7692,30.106 C29.9992,29.802 30.1832,29.541 30.3352,29.386 C30.4782,29.22 30.5592,29.126 30.5592,29.126 C30.9792,28.527 30.7712,28.592 30.4762,28.657 C30.1992,28.738 29.8592,28.866 30.1002,28.301 C29.4732,28.948 28.7152,29.804 28.1962,30.627 C27.6952,31.523 27.3522,32.241 27.5552,32.437 C27.5262,32.347 27.4422,32.156 27.2042,32.489 L27.1602,33.712 L27.7152,32.799 C27.7132,33.416 27.2492,34.491 26.9742,35.524 C26.7772,36.032 26.6562,36.531 26.5372,36.938 C26.4142,37.343 26.2692,37.655 26.1852,37.799 C26.4612,35.863 25.5952,36.658 26.8062,34.045 C26.6212,34.109 26.1892,34.524 26.3772,33.884 C25.8692,35.527 25.3852,37.07 25.3162,38.667 C25.1992,40.249 25.3202,41.881 25.9712,43.481" id="Fill-212" fill="#FFC50A"></path>
                    <path d="M42.7534,27.7441 L42.7004,27.7581 C42.7534,27.7801 42.7794,27.7801 42.7534,27.7441" id="Fill-214" fill="#FFC50A"></path>
                    <path d="M42.1826,27.0151 C42.1906,26.9541 40.8546,26.5901 40.8656,26.6261 L41.1126,26.7871 C41.2636,26.8811 41.4346,27.0501 41.6296,27.1891 C41.8056,27.3561 41.9826,27.5221 42.1146,27.6471 C42.2356,27.7891 42.3156,27.8841 42.3156,27.8841 L42.7006,27.7581 C42.5136,27.6561 41.8986,27.2801 41.7996,26.9941 C41.8046,26.9831 42.1826,27.0151 42.1826,27.0151" id="Fill-216" fill="#FFC50A"></path>
                    <path d="M39.5161,26.2681 C39.9641,26.3841 40.2421,26.3421 40.3481,26.2371 C40.4571,26.1261 40.4151,25.8931 40.1931,25.6941 C41.1421,25.9691 40.4041,26.3091 41.1941,26.2801 C41.3781,25.9711 40.2121,25.5351 39.9391,25.5041 L39.5161,26.2681 Z" id="Fill-218" fill="#FFC50A"></path>
                    <path d="M32.2734,27.0772 L32.4504,26.7592 C32.4504,26.7592 32.2734,26.8532 32.0974,26.9472 C31.9264,27.0552 31.7554,27.1632 31.7554,27.1632 L32.2734,27.0772 Z" id="Fill-220" fill="#FFC50A"></path>
                    <path d="M32.4507,26.7593 C32.4507,26.7593 32.6247,26.6663 32.7987,26.5733 C32.9777,26.4973 33.1567,26.4203 33.1567,26.4203 C33.0477,26.3233 32.9387,26.2293 32.7767,26.2063 C32.7667,26.1933 32.4507,26.7593 32.4507,26.7593" id="Fill-222" fill="#FFC50A"></path>
                    <path d="M35.0464,25.8335 C35.3544,25.7795 35.6904,25.7465 36.0934,25.6965 C36.0934,25.6965 35.8324,25.7215 35.5714,25.7465 C35.3104,25.7815 35.0464,25.8335 35.0464,25.8335" id="Fill-224" fill="#FFC50A"></path>
                    <path d="M34.1987,25.9741 L34.2427,26.0201 C34.2427,26.0201 35.0447,25.8101 35.0467,25.8331 C34.7437,25.8551 34.4787,25.9411 34.1987,25.9741" id="Fill-226" fill="#FFC50A"></path>
                    <path d="M33.1567,26.4204 C33.4127,26.6454 33.6667,26.8314 34.5967,26.4084 L34.2427,26.0204 C34.2427,26.0204 33.9727,26.1124 33.6987,26.2034 C33.5597,26.2444 33.4247,26.2984 33.3247,26.3474 L33.1567,26.4204 Z" id="Fill-228" fill="#FFC50A"></path>
                    <path d="M34.1631,63.8101 C34.1631,63.8101 33.8101,63.6951 33.4571,63.5811 C33.1021,63.4681 32.7541,63.3371 32.7541,63.3381 L32.8691,63.4561 L34.2841,63.9171 L34.1631,63.8101 Z" id="Fill-230" fill="#FFC50A"></path>
                    <path d="M27.2241,59.0708 C26.9221,58.8708 26.6811,58.7288 26.4571,58.6048 C26.7621,58.8368 27.0201,59.0008 27.2241,59.0708" id="Fill-232" fill="#FFC50A"></path>
                    <path d="M21.2466,55.7798 C20.3806,54.1328 23.1076,57.5468 21.1816,54.7498 C21.2226,54.5368 21.5216,54.7258 21.9446,55.0938 C22.3746,55.4598 22.9016,56.0298 23.3366,56.6838 C23.0526,56.7688 22.2436,55.6008 22.6356,56.5368 C23.5276,57.1608 23.6746,57.5418 23.7226,57.0178 C25.0906,58.1138 25.4236,58.0408 26.4566,58.6048 C25.6326,58.0038 24.5546,56.8358 23.5266,55.5438 C23.0146,54.8938 22.4816,54.2408 22.0226,53.5768 C21.5376,52.9328 21.0586,52.3358 20.6416,51.8058 C19.5016,50.7538 19.3246,51.8378 18.6986,52.1828 C18.6966,52.3108 19.1056,53.3348 19.7246,54.1958 C20.3246,55.0728 20.9956,55.8818 21.2466,55.7798" id="Fill-234" fill="#FFC50A"></path>
                    <path d="M22.5869,58.5015 C23.1579,59.1635 23.3639,59.3395 23.7759,59.6835 C23.8469,59.4075 23.0789,59.0135 22.5869,58.5015" id="Fill-236" fill="#FFC50A"></path>
                    <path d="M20.4858,39.7139 C20.4388,39.6439 20.3648,39.2759 20.3178,38.9589 C20.2818,38.6419 20.2328,38.3739 20.1308,38.5109 C20.1308,38.5109 20.0888,39.0199 20.1458,39.5309 C20.1818,40.0399 20.2178,40.5489 20.2178,40.5489 C20.2298,40.0709 20.3538,39.9029 20.4858,39.7139" id="Fill-238" fill="#FFC50A"></path>
                    <path d="M20.3022,41.4341 C20.2762,41.4371 20.2182,40.5491 20.2182,40.5491 C20.2192,40.7711 20.2062,41.0491 20.3022,41.4341" id="Fill-240" fill="#FFC50A"></path>
                    <path d="M20.5488,39.6196 L20.4858,39.7136 C20.5068,39.7426 20.5298,39.7376 20.5488,39.6196" id="Fill-242" fill="#FFC50A"></path>
                    <path d="M37.9307,25.7974 C37.8887,25.9994 38.3947,25.9434 38.6487,25.9564 C38.4637,25.8724 38.1787,25.7954 37.9307,25.7974" id="Fill-244" fill="#FFC50A"></path>
                    <path d="M41.3262,43.021 C41.3292,43.04 40.8492,43.126 40.8492,43.126 C41.0322,43.121 41.1392,43.138 41.3262,43.021" id="Fill-246" fill="#FFC50A"></path>
                    <path d="M31.8892,46.5122 C31.8442,46.5182 31.7782,46.4912 31.6972,46.4442 C31.7732,46.4942 31.8382,46.5192 31.8892,46.5122" id="Fill-248" fill="#FFC50A"></path>
                    <path d="M31.6973,46.4439 C31.5673,46.3559 31.4023,46.1899 31.2213,45.9829 C31.0573,45.7669 30.8913,45.5039 30.7183,45.2419 C30.3843,44.7149 30.1113,44.1559 29.8513,43.9119 L29.9523,43.9569 L29.3463,42.8809 C29.5653,43.4149 29.9073,44.2439 30.3653,44.9639 C30.8273,45.6809 31.3693,46.2769 31.6973,46.4439" id="Fill-250" fill="#FFC50A"></path>
                </g>
            </g>
        </g>
    </g>
</svg>